<mxfile host="Electron" modified="2025-05-06T15:18:29.866Z" agent="Mozilla/5.0 (Windows NT 10.0; Win64; x64) AppleWebKit/537.36 (KHTML, like Gecko) draw.io/24.6.4 Chrome/124.0.6367.207 Electron/30.0.6 Safari/537.36" etag="kCSS7bT50XRwTcxPD6Fq" version="24.6.4" type="device">
  <diagram id="C5RBs43oDa-KdzZeNtuy" name="Page-1">
    <mxGraphModel dx="1434" dy="836" grid="1" gridSize="10" guides="1" tooltips="1" connect="1" arrows="1" fold="1" page="1" pageScale="1" pageWidth="1169" pageHeight="827" math="0" shadow="0">
      <root>
        <mxCell id="WIyWlLk6GJQsqaUBKTNV-0" />
        <mxCell id="WIyWlLk6GJQsqaUBKTNV-1" parent="WIyWlLk6GJQsqaUBKTNV-0" />
        <mxCell id="Hwf7FfOS5lIDOdPDUix2-1" value="" style="rounded=0;whiteSpace=wrap;html=1;" parent="WIyWlLk6GJQsqaUBKTNV-1" vertex="1">
          <mxGeometry x="9" y="4" width="730" height="86" as="geometry" />
        </mxCell>
        <mxCell id="WIyWlLk6GJQsqaUBKTNV-3" value="&lt;div&gt;&lt;span style=&quot;background-color: initial;&quot;&gt;Context&lt;/span&gt;&lt;br&gt;&lt;/div&gt;" style="rounded=1;whiteSpace=wrap;html=1;fontSize=12;glass=0;strokeWidth=1;shadow=0;fillColor=#ffe6cc;strokeColor=#d79b00;" parent="WIyWlLk6GJQsqaUBKTNV-1" vertex="1">
          <mxGeometry x="965.52" y="207.99999999999997" width="180" height="40" as="geometry" />
        </mxCell>
        <mxCell id="WIyWlLk6GJQsqaUBKTNV-7" value="Location" style="rounded=1;whiteSpace=wrap;html=1;fontSize=12;glass=0;strokeWidth=1;shadow=0;fillColor=#ffe6cc;strokeColor=#d79b00;" parent="WIyWlLk6GJQsqaUBKTNV-1" vertex="1">
          <mxGeometry x="331.5" y="212" width="120" height="40" as="geometry" />
        </mxCell>
        <mxCell id="WIyWlLk6GJQsqaUBKTNV-11" value="Parish" style="rounded=1;whiteSpace=wrap;html=1;fontSize=12;glass=0;strokeWidth=1;shadow=0;" parent="WIyWlLk6GJQsqaUBKTNV-1" vertex="1">
          <mxGeometry x="361.5" y="281" width="65.5" height="40" as="geometry" />
        </mxCell>
        <mxCell id="WIyWlLk6GJQsqaUBKTNV-12" value="District" style="rounded=1;whiteSpace=wrap;html=1;fontSize=12;glass=0;strokeWidth=1;shadow=0;" parent="WIyWlLk6GJQsqaUBKTNV-1" vertex="1">
          <mxGeometry x="280.5" y="281" width="73.5" height="40" as="geometry" />
        </mxCell>
        <mxCell id="7yGm6yMmNK_dDhONly1p-0" value="" style="endArrow=classic;html=1;rounded=0;exitX=0.5;exitY=1;exitDx=0;exitDy=0;" parent="WIyWlLk6GJQsqaUBKTNV-1" source="Wt6RqohvD_NQ85V1_xqK-16" target="WIyWlLk6GJQsqaUBKTNV-7" edge="1">
          <mxGeometry width="50" height="50" relative="1" as="geometry">
            <mxPoint x="481.5" y="403" as="sourcePoint" />
            <mxPoint x="531.5" y="353" as="targetPoint" />
            <Array as="points">
              <mxPoint x="390" y="193" />
            </Array>
          </mxGeometry>
        </mxCell>
        <mxCell id="7yGm6yMmNK_dDhONly1p-1" value="Name" style="rounded=1;whiteSpace=wrap;html=1;fontSize=12;glass=0;strokeWidth=1;shadow=0;" parent="WIyWlLk6GJQsqaUBKTNV-1" vertex="1">
          <mxGeometry x="434.5" y="281" width="73.5" height="40" as="geometry" />
        </mxCell>
        <mxCell id="7yGm6yMmNK_dDhONly1p-2" value="" style="endArrow=classic;html=1;rounded=0;entryX=0.5;entryY=0;entryDx=0;entryDy=0;exitX=0;exitY=0.75;exitDx=0;exitDy=0;" parent="WIyWlLk6GJQsqaUBKTNV-1" source="WIyWlLk6GJQsqaUBKTNV-7" target="WIyWlLk6GJQsqaUBKTNV-12" edge="1">
          <mxGeometry width="50" height="50" relative="1" as="geometry">
            <mxPoint x="330" y="243" as="sourcePoint" />
            <mxPoint x="586.5" y="322" as="targetPoint" />
            <Array as="points">
              <mxPoint x="317" y="243" />
            </Array>
          </mxGeometry>
        </mxCell>
        <mxCell id="7yGm6yMmNK_dDhONly1p-3" value="" style="endArrow=classic;html=1;rounded=0;exitX=0.5;exitY=1;exitDx=0;exitDy=0;entryX=0.5;entryY=0;entryDx=0;entryDy=0;" parent="WIyWlLk6GJQsqaUBKTNV-1" target="WIyWlLk6GJQsqaUBKTNV-11" edge="1">
          <mxGeometry width="50" height="50" relative="1" as="geometry">
            <mxPoint x="394.5" y="252" as="sourcePoint" />
            <mxPoint x="410.5" y="302" as="targetPoint" />
          </mxGeometry>
        </mxCell>
        <mxCell id="7yGm6yMmNK_dDhONly1p-4" value="" style="endArrow=classic;html=1;rounded=0;exitX=1;exitY=0.75;exitDx=0;exitDy=0;entryX=0.5;entryY=0;entryDx=0;entryDy=0;" parent="WIyWlLk6GJQsqaUBKTNV-1" source="WIyWlLk6GJQsqaUBKTNV-7" target="7yGm6yMmNK_dDhONly1p-1" edge="1">
          <mxGeometry width="50" height="50" relative="1" as="geometry">
            <mxPoint x="536.5" y="372" as="sourcePoint" />
            <mxPoint x="586.5" y="322" as="targetPoint" />
            <Array as="points">
              <mxPoint x="471" y="243" />
            </Array>
          </mxGeometry>
        </mxCell>
        <mxCell id="7yGm6yMmNK_dDhONly1p-6" value="Latitude" style="rounded=1;whiteSpace=wrap;html=1;fontSize=12;glass=0;strokeWidth=1;shadow=0;" parent="WIyWlLk6GJQsqaUBKTNV-1" vertex="1">
          <mxGeometry x="292.25" y="343" width="69" height="40" as="geometry" />
        </mxCell>
        <mxCell id="7yGm6yMmNK_dDhONly1p-10" value="M" style="text;html=1;align=center;verticalAlign=middle;whiteSpace=wrap;rounded=0;" parent="WIyWlLk6GJQsqaUBKTNV-1" vertex="1">
          <mxGeometry x="1038.52" y="171" width="60" height="30" as="geometry" />
        </mxCell>
        <mxCell id="7yGm6yMmNK_dDhONly1p-14" value="&lt;div&gt;&lt;span style=&quot;background-color: initial;&quot;&gt;StratigraphicVolumeUnit&lt;/span&gt;&lt;br&gt;&lt;/div&gt;&lt;div&gt;&lt;span style=&quot;background-color: initial;&quot;&gt;&lt;br&gt;&lt;/span&gt;&lt;/div&gt;" style="rounded=1;whiteSpace=wrap;html=1;fontSize=12;glass=0;strokeWidth=1;shadow=0;fillColor=#ffe6cc;strokeColor=#d79b00;" parent="WIyWlLk6GJQsqaUBKTNV-1" vertex="1">
          <mxGeometry x="983.52" y="317.97" width="170" height="40" as="geometry" />
        </mxCell>
        <mxCell id="7yGm6yMmNK_dDhONly1p-16" value="TimeLine" style="rounded=1;whiteSpace=wrap;html=1;fontSize=12;glass=0;strokeWidth=1;shadow=0;fillColor=#ffe6cc;strokeColor=#d79b00;" parent="WIyWlLk6GJQsqaUBKTNV-1" vertex="1">
          <mxGeometry x="985.52" y="377.97" width="79" height="40" as="geometry" />
        </mxCell>
        <mxCell id="7yGm6yMmNK_dDhONly1p-17" value="Description" style="rounded=1;whiteSpace=wrap;html=1;fontSize=12;glass=0;strokeWidth=1;shadow=0;" parent="WIyWlLk6GJQsqaUBKTNV-1" vertex="1">
          <mxGeometry x="1075.52" y="377.97" width="79" height="40" as="geometry" />
        </mxCell>
        <mxCell id="7yGm6yMmNK_dDhONly1p-19" value="&lt;div&gt;&lt;span style=&quot;background-color: initial;&quot;&gt;EncounterEvent&lt;/span&gt;&lt;br&gt;&lt;/div&gt;" style="rounded=1;whiteSpace=wrap;html=1;fontSize=12;glass=0;strokeWidth=1;shadow=0;fillColor=#ffe6cc;strokeColor=#d79b00;" parent="WIyWlLk6GJQsqaUBKTNV-1" vertex="1">
          <mxGeometry x="706.52" y="319.97" width="130" height="40" as="geometry" />
        </mxCell>
        <mxCell id="7yGm6yMmNK_dDhONly1p-20" value="Date" style="rounded=1;whiteSpace=wrap;html=1;fontSize=12;glass=0;strokeWidth=1;shadow=0;" parent="WIyWlLk6GJQsqaUBKTNV-1" vertex="1">
          <mxGeometry x="771.02" y="398.97" width="79" height="40" as="geometry" />
        </mxCell>
        <mxCell id="7yGm6yMmNK_dDhONly1p-21" value="Arrowhead" style="rounded=1;whiteSpace=wrap;html=1;fontSize=12;glass=0;strokeWidth=1;shadow=0;fillColor=#ffe6cc;strokeColor=#d79b00;" parent="WIyWlLk6GJQsqaUBKTNV-1" vertex="1">
          <mxGeometry x="189" y="715" width="67" height="40" as="geometry" />
        </mxCell>
        <mxCell id="7yGm6yMmNK_dDhONly1p-24" value="" style="endArrow=classic;html=1;rounded=0;exitX=0.084;exitY=0.988;exitDx=0;exitDy=0;exitPerimeter=0;entryX=0.5;entryY=0;entryDx=0;entryDy=0;" parent="WIyWlLk6GJQsqaUBKTNV-1" target="7yGm6yMmNK_dDhONly1p-16" edge="1">
          <mxGeometry width="50" height="50" relative="1" as="geometry">
            <mxPoint x="1024.8" y="357.49" as="sourcePoint" />
            <mxPoint x="1125.52" y="367.97" as="targetPoint" />
          </mxGeometry>
        </mxCell>
        <mxCell id="7yGm6yMmNK_dDhONly1p-25" value="" style="endArrow=classic;html=1;rounded=0;exitX=0.5;exitY=1;exitDx=0;exitDy=0;entryX=0.25;entryY=0;entryDx=0;entryDy=0;" parent="WIyWlLk6GJQsqaUBKTNV-1" edge="1">
          <mxGeometry width="50" height="50" relative="1" as="geometry">
            <mxPoint x="1112.52" y="357.97" as="sourcePoint" />
            <mxPoint x="1112.27" y="377.97" as="targetPoint" />
          </mxGeometry>
        </mxCell>
        <mxCell id="7yGm6yMmNK_dDhONly1p-29" value="M" style="text;html=1;align=center;verticalAlign=middle;whiteSpace=wrap;rounded=0;" parent="WIyWlLk6GJQsqaUBKTNV-1" vertex="1">
          <mxGeometry x="1038.52" y="282.97" width="60" height="30" as="geometry" />
        </mxCell>
        <mxCell id="7yGm6yMmNK_dDhONly1p-34" value="Media" style="rounded=1;whiteSpace=wrap;html=1;fontSize=12;glass=0;strokeWidth=1;shadow=0;" parent="WIyWlLk6GJQsqaUBKTNV-1" vertex="1">
          <mxGeometry x="41.25" y="691" width="80.75" height="40" as="geometry" />
        </mxCell>
        <mxCell id="7yGm6yMmNK_dDhONly1p-35" value="ConditionState" style="rounded=1;whiteSpace=wrap;html=1;fontSize=12;glass=0;strokeWidth=1;shadow=0;" parent="WIyWlLk6GJQsqaUBKTNV-1" vertex="1">
          <mxGeometry x="41" y="571" width="92" height="40" as="geometry" />
        </mxCell>
        <mxCell id="7yGm6yMmNK_dDhONly1p-43" value="" style="endArrow=classic;html=1;rounded=0;exitX=0;exitY=0.75;exitDx=0;exitDy=0;entryX=1;entryY=0.5;entryDx=0;entryDy=0;" parent="WIyWlLk6GJQsqaUBKTNV-1" source="gLRjnHzjltlTBfM6pdDn-2" target="7yGm6yMmNK_dDhONly1p-34" edge="1">
          <mxGeometry width="50" height="50" relative="1" as="geometry">
            <mxPoint x="277.875" y="600" as="sourcePoint" />
            <mxPoint x="271" y="614" as="targetPoint" />
            <Array as="points">
              <mxPoint x="160" y="650" />
              <mxPoint x="160" y="710" />
            </Array>
          </mxGeometry>
        </mxCell>
        <mxCell id="7yGm6yMmNK_dDhONly1p-44" value="" style="endArrow=classic;html=1;rounded=0;entryX=1;entryY=0.75;entryDx=0;entryDy=0;exitX=0.097;exitY=0.05;exitDx=0;exitDy=0;exitPerimeter=0;" parent="WIyWlLk6GJQsqaUBKTNV-1" source="gLRjnHzjltlTBfM6pdDn-2" target="7yGm6yMmNK_dDhONly1p-35" edge="1">
          <mxGeometry width="50" height="50" relative="1" as="geometry">
            <mxPoint x="210" y="560" as="sourcePoint" />
            <mxPoint x="239" y="574" as="targetPoint" />
            <Array as="points">
              <mxPoint x="230" y="600" />
            </Array>
          </mxGeometry>
        </mxCell>
        <mxCell id="7yGm6yMmNK_dDhONly1p-80" value="&lt;h3 aria-level=&quot;2&quot; role=&quot;heading&quot; id=&quot;h3_ch_subclassof&quot; style=&quot;font-size: 11px;&quot;&gt;rdfs:subClassOf&lt;/h3&gt;" style="text;html=1;align=center;verticalAlign=middle;whiteSpace=wrap;rounded=0;fontSize=11;" parent="WIyWlLk6GJQsqaUBKTNV-1" vertex="1">
          <mxGeometry x="226.75" y="690" width="83" height="21" as="geometry" />
        </mxCell>
        <mxCell id="7yGm6yMmNK_dDhONly1p-87" value="Material [1]" style="rounded=1;whiteSpace=wrap;html=1;fontSize=12;glass=0;strokeWidth=1;shadow=0;" parent="WIyWlLk6GJQsqaUBKTNV-1" vertex="1">
          <mxGeometry x="40" y="631" width="80.5" height="40" as="geometry" />
        </mxCell>
        <mxCell id="7yGm6yMmNK_dDhONly1p-88" value="Observation" style="rounded=1;whiteSpace=wrap;html=1;fontSize=12;glass=0;strokeWidth=1;shadow=0;" parent="WIyWlLk6GJQsqaUBKTNV-1" vertex="1">
          <mxGeometry x="453" y="620" width="79" height="40" as="geometry" />
        </mxCell>
        <mxCell id="7yGm6yMmNK_dDhONly1p-92" value="MegaLOD Project |&amp;nbsp;&lt;span style=&quot;background-color: initial; font-size: 32px;&quot;&gt;Domain Model - V1.1&lt;/span&gt;" style="text;strokeColor=none;fillColor=none;html=1;fontSize=32;fontStyle=1;verticalAlign=middle;align=left;" parent="WIyWlLk6GJQsqaUBKTNV-1" vertex="1">
          <mxGeometry x="25" y="5.28" width="734" height="79.72" as="geometry" />
        </mxCell>
        <mxCell id="7yGm6yMmNK_dDhONly1p-125" value="" style="edgeStyle=elbowEdgeStyle;elbow=vertical;endArrow=classic;html=1;curved=0;rounded=0;endSize=8;startSize=8;entryX=-0.007;entryY=0.594;entryDx=0;entryDy=0;exitX=1;exitY=0.5;exitDx=0;exitDy=0;entryPerimeter=0;" parent="WIyWlLk6GJQsqaUBKTNV-1" source="gLRjnHzjltlTBfM6pdDn-2" target="7yGm6yMmNK_dDhONly1p-88" edge="1">
          <mxGeometry width="50" height="50" relative="1" as="geometry">
            <mxPoint x="406" y="784" as="sourcePoint" />
            <mxPoint x="836" y="553" as="targetPoint" />
            <Array as="points">
              <mxPoint x="420" y="644" />
            </Array>
          </mxGeometry>
        </mxCell>
        <mxCell id="7yGm6yMmNK_dDhONly1p-132" value="M" style="text;html=1;align=center;verticalAlign=middle;whiteSpace=wrap;rounded=0;" parent="WIyWlLk6GJQsqaUBKTNV-1" vertex="1">
          <mxGeometry x="132" y="690" width="33" height="21" as="geometry" />
        </mxCell>
        <mxCell id="Wt6RqohvD_NQ85V1_xqK-16" value="&lt;div&gt;&lt;span style=&quot;background-color: initial;&quot;&gt;Excavation&lt;/span&gt;&lt;br&gt;&lt;/div&gt;" style="rounded=1;whiteSpace=wrap;html=1;fontSize=12;glass=0;strokeWidth=1;shadow=0;fillColor=#ffe6cc;strokeColor=#d79b00;" parent="WIyWlLk6GJQsqaUBKTNV-1" vertex="1">
          <mxGeometry x="300" y="110" width="180" height="40" as="geometry" />
        </mxCell>
        <mxCell id="Wt6RqohvD_NQ85V1_xqK-18" value="" style="endArrow=classic;html=1;rounded=0;exitX=0.5;exitY=1;exitDx=0;exitDy=0;entryX=0.426;entryY=0.01;entryDx=0;entryDy=0;entryPerimeter=0;" parent="WIyWlLk6GJQsqaUBKTNV-1" source="WIyWlLk6GJQsqaUBKTNV-3" target="7yGm6yMmNK_dDhONly1p-14" edge="1">
          <mxGeometry width="50" height="50" relative="1" as="geometry">
            <mxPoint x="1246.02" y="267.97" as="sourcePoint" />
            <mxPoint x="1296.02" y="217.97" as="targetPoint" />
          </mxGeometry>
        </mxCell>
        <mxCell id="Wt6RqohvD_NQ85V1_xqK-46" value="" style="endArrow=classic;html=1;rounded=0;exitX=1;exitY=0.25;exitDx=0;exitDy=0;entryX=0.5;entryY=0;entryDx=0;entryDy=0;" parent="WIyWlLk6GJQsqaUBKTNV-1" source="Wt6RqohvD_NQ85V1_xqK-16" target="WIyWlLk6GJQsqaUBKTNV-3" edge="1">
          <mxGeometry width="50" height="50" relative="1" as="geometry">
            <mxPoint x="680" y="340" as="sourcePoint" />
            <mxPoint x="1010" y="290" as="targetPoint" />
            <Array as="points">
              <mxPoint x="1056" y="120" />
            </Array>
          </mxGeometry>
        </mxCell>
        <mxCell id="Wt6RqohvD_NQ85V1_xqK-48" value="" style="endArrow=classic;html=1;rounded=0;exitX=1;exitY=0.5;exitDx=0;exitDy=0;entryX=0;entryY=0.5;entryDx=0;entryDy=0;" parent="WIyWlLk6GJQsqaUBKTNV-1" source="7yGm6yMmNK_dDhONly1p-19" target="7yGm6yMmNK_dDhONly1p-14" edge="1">
          <mxGeometry width="50" height="50" relative="1" as="geometry">
            <mxPoint x="681.52" y="399.97" as="sourcePoint" />
            <mxPoint x="731.52" y="349.97" as="targetPoint" />
          </mxGeometry>
        </mxCell>
        <mxCell id="Wt6RqohvD_NQ85V1_xqK-49" value="" style="endArrow=classic;html=1;rounded=0;exitX=0.5;exitY=0;exitDx=0;exitDy=0;entryX=0;entryY=0.5;entryDx=0;entryDy=0;" parent="WIyWlLk6GJQsqaUBKTNV-1" source="7yGm6yMmNK_dDhONly1p-19" target="WIyWlLk6GJQsqaUBKTNV-3" edge="1">
          <mxGeometry width="50" height="50" relative="1" as="geometry">
            <mxPoint x="765.52" y="439.97" as="sourcePoint" />
            <mxPoint x="815.52" y="389.97" as="targetPoint" />
            <Array as="points">
              <mxPoint x="771.52" y="229.97" />
            </Array>
          </mxGeometry>
        </mxCell>
        <mxCell id="Wt6RqohvD_NQ85V1_xqK-55" value="" style="endArrow=classic;html=1;rounded=0;entryX=0.5;entryY=0;entryDx=0;entryDy=0;exitX=0.8;exitY=1.01;exitDx=0;exitDy=0;exitPerimeter=0;" parent="WIyWlLk6GJQsqaUBKTNV-1" source="7yGm6yMmNK_dDhONly1p-19" target="7yGm6yMmNK_dDhONly1p-20" edge="1">
          <mxGeometry width="50" height="50" relative="1" as="geometry">
            <mxPoint x="810.52" y="382.97" as="sourcePoint" />
            <mxPoint x="686.52" y="272.97" as="targetPoint" />
          </mxGeometry>
        </mxCell>
        <mxCell id="Wt6RqohvD_NQ85V1_xqK-61" value="Archaeologist" style="rounded=1;whiteSpace=wrap;html=1;fontSize=12;glass=0;strokeWidth=1;shadow=0;fillColor=#ffe6cc;strokeColor=#d79b00;" parent="WIyWlLk6GJQsqaUBKTNV-1" vertex="1">
          <mxGeometry x="64" y="110" width="120" height="40" as="geometry" />
        </mxCell>
        <mxCell id="Wt6RqohvD_NQ85V1_xqK-62" value="ORCID" style="rounded=1;whiteSpace=wrap;html=1;fontSize=12;glass=0;strokeWidth=1;shadow=0;" parent="WIyWlLk6GJQsqaUBKTNV-1" vertex="1">
          <mxGeometry x="110" y="176" width="65.5" height="40" as="geometry" />
        </mxCell>
        <mxCell id="Wt6RqohvD_NQ85V1_xqK-63" value="Email" style="rounded=1;whiteSpace=wrap;html=1;fontSize=12;glass=0;strokeWidth=1;shadow=0;" parent="WIyWlLk6GJQsqaUBKTNV-1" vertex="1">
          <mxGeometry x="29" y="176" width="73.5" height="40" as="geometry" />
        </mxCell>
        <mxCell id="Wt6RqohvD_NQ85V1_xqK-64" value="Name" style="rounded=1;whiteSpace=wrap;html=1;fontSize=12;glass=0;strokeWidth=1;shadow=0;" parent="WIyWlLk6GJQsqaUBKTNV-1" vertex="1">
          <mxGeometry x="183" y="176" width="73.5" height="40" as="geometry" />
        </mxCell>
        <mxCell id="Wt6RqohvD_NQ85V1_xqK-66" value="" style="endArrow=classic;html=1;rounded=0;exitX=0.111;exitY=0.958;exitDx=0;exitDy=0;exitPerimeter=0;entryX=0.59;entryY=-0.047;entryDx=0;entryDy=0;entryPerimeter=0;" parent="WIyWlLk6GJQsqaUBKTNV-1" edge="1">
          <mxGeometry width="50" height="50" relative="1" as="geometry">
            <mxPoint x="72.31999999999994" y="150.31999999999994" as="sourcePoint" />
            <mxPoint x="72.36500000000001" y="176.12" as="targetPoint" />
          </mxGeometry>
        </mxCell>
        <mxCell id="Wt6RqohvD_NQ85V1_xqK-67" value="" style="endArrow=classic;html=1;rounded=0;exitX=0.652;exitY=0.992;exitDx=0;exitDy=0;exitPerimeter=0;entryX=0.5;entryY=0;entryDx=0;entryDy=0;" parent="WIyWlLk6GJQsqaUBKTNV-1" source="Wt6RqohvD_NQ85V1_xqK-61" target="Wt6RqohvD_NQ85V1_xqK-62" edge="1">
          <mxGeometry width="50" height="50" relative="1" as="geometry">
            <mxPoint x="82" y="158" as="sourcePoint" />
            <mxPoint x="139" y="173" as="targetPoint" />
          </mxGeometry>
        </mxCell>
        <mxCell id="Wt6RqohvD_NQ85V1_xqK-68" value="" style="endArrow=classic;html=1;rounded=0;exitX=0.99;exitY=0.944;exitDx=0;exitDy=0;exitPerimeter=0;entryX=0.5;entryY=0;entryDx=0;entryDy=0;" parent="WIyWlLk6GJQsqaUBKTNV-1" source="Wt6RqohvD_NQ85V1_xqK-61" target="Wt6RqohvD_NQ85V1_xqK-64" edge="1">
          <mxGeometry width="50" height="50" relative="1" as="geometry">
            <mxPoint x="152" y="160" as="sourcePoint" />
            <mxPoint x="153" y="186" as="targetPoint" />
            <Array as="points">
              <mxPoint x="219" y="148" />
            </Array>
          </mxGeometry>
        </mxCell>
        <mxCell id="Wt6RqohvD_NQ85V1_xqK-69" value="" style="endArrow=classic;html=1;rounded=0;exitX=0;exitY=0.5;exitDx=0;exitDy=0;entryX=1;entryY=0.5;entryDx=0;entryDy=0;" parent="WIyWlLk6GJQsqaUBKTNV-1" source="Wt6RqohvD_NQ85V1_xqK-16" target="Wt6RqohvD_NQ85V1_xqK-61" edge="1">
          <mxGeometry width="50" height="50" relative="1" as="geometry">
            <mxPoint x="195" y="243" as="sourcePoint" />
            <mxPoint x="245" y="193" as="targetPoint" />
          </mxGeometry>
        </mxCell>
        <mxCell id="Wt6RqohvD_NQ85V1_xqK-76" value="Acronym" style="rounded=1;whiteSpace=wrap;html=1;fontSize=12;glass=0;strokeWidth=1;shadow=0;" parent="WIyWlLk6GJQsqaUBKTNV-1" vertex="1">
          <mxGeometry x="477" y="173" width="73.5" height="40" as="geometry" />
        </mxCell>
        <mxCell id="Wt6RqohvD_NQ85V1_xqK-77" value="" style="endArrow=classic;html=1;rounded=0;exitX=0.75;exitY=1;exitDx=0;exitDy=0;entryX=0;entryY=0.5;entryDx=0;entryDy=0;" parent="WIyWlLk6GJQsqaUBKTNV-1" source="Wt6RqohvD_NQ85V1_xqK-16" target="Wt6RqohvD_NQ85V1_xqK-76" edge="1">
          <mxGeometry width="50" height="50" relative="1" as="geometry">
            <mxPoint x="615" y="443" as="sourcePoint" />
            <mxPoint x="665" y="393" as="targetPoint" />
            <Array as="points">
              <mxPoint x="435" y="192" />
            </Array>
          </mxGeometry>
        </mxCell>
        <mxCell id="Wt6RqohvD_NQ85V1_xqK-87" value="" style="endArrow=classic;html=1;rounded=0;exitX=0;exitY=0.5;exitDx=0;exitDy=0;entryX=1;entryY=0.25;entryDx=0;entryDy=0;" parent="WIyWlLk6GJQsqaUBKTNV-1" source="gLRjnHzjltlTBfM6pdDn-2" target="7yGm6yMmNK_dDhONly1p-87" edge="1">
          <mxGeometry width="50" height="50" relative="1" as="geometry">
            <mxPoint x="326" y="764" as="sourcePoint" />
            <mxPoint x="164.5" y="580" as="targetPoint" />
            <Array as="points" />
          </mxGeometry>
        </mxCell>
        <mxCell id="Wt6RqohvD_NQ85V1_xqK-88" value="InventoryID" style="rounded=1;whiteSpace=wrap;html=1;fontSize=12;glass=0;strokeWidth=1;shadow=0;" parent="WIyWlLk6GJQsqaUBKTNV-1" vertex="1">
          <mxGeometry x="336.25" y="552" width="79" height="40" as="geometry" />
        </mxCell>
        <mxCell id="Wt6RqohvD_NQ85V1_xqK-89" value="" style="endArrow=classic;html=1;rounded=0;exitX=0.803;exitY=-0.1;exitDx=0;exitDy=0;exitPerimeter=0;entryX=0.522;entryY=0.982;entryDx=0;entryDy=0;entryPerimeter=0;" parent="WIyWlLk6GJQsqaUBKTNV-1" target="Wt6RqohvD_NQ85V1_xqK-88" edge="1">
          <mxGeometry width="50" height="50" relative="1" as="geometry">
            <mxPoint x="376.7365" y="620" as="sourcePoint" />
            <mxPoint x="375.75" y="584" as="targetPoint" />
            <Array as="points" />
          </mxGeometry>
        </mxCell>
        <mxCell id="Wt6RqohvD_NQ85V1_xqK-96" value="ID" style="rounded=1;whiteSpace=wrap;html=1;fontSize=12;glass=0;strokeWidth=1;shadow=0;" parent="WIyWlLk6GJQsqaUBKTNV-1" vertex="1">
          <mxGeometry x="977.27" y="152" width="47.5" height="40" as="geometry" />
        </mxCell>
        <mxCell id="Wt6RqohvD_NQ85V1_xqK-98" value="" style="endArrow=classic;html=1;rounded=0;exitX=0.198;exitY=0.005;exitDx=0;exitDy=0;exitPerimeter=0;entryX=0.5;entryY=1;entryDx=0;entryDy=0;" parent="WIyWlLk6GJQsqaUBKTNV-1" source="WIyWlLk6GJQsqaUBKTNV-3" target="Wt6RqohvD_NQ85V1_xqK-96" edge="1">
          <mxGeometry width="50" height="50" relative="1" as="geometry">
            <mxPoint x="935.52" y="331.97" as="sourcePoint" />
            <mxPoint x="1005.52" y="271.97" as="targetPoint" />
          </mxGeometry>
        </mxCell>
        <mxCell id="Wt6RqohvD_NQ85V1_xqK-99" value="ID" style="rounded=1;whiteSpace=wrap;html=1;fontSize=12;glass=0;strokeWidth=1;shadow=0;" parent="WIyWlLk6GJQsqaUBKTNV-1" vertex="1">
          <mxGeometry x="1103.52" y="261.97" width="47.5" height="40" as="geometry" />
        </mxCell>
        <mxCell id="Wt6RqohvD_NQ85V1_xqK-101" value="" style="endArrow=classic;html=1;rounded=0;exitX=0.848;exitY=0.01;exitDx=0;exitDy=0;exitPerimeter=0;entryX=0.5;entryY=1;entryDx=0;entryDy=0;" parent="WIyWlLk6GJQsqaUBKTNV-1" source="7yGm6yMmNK_dDhONly1p-14" target="Wt6RqohvD_NQ85V1_xqK-99" edge="1">
          <mxGeometry width="50" height="50" relative="1" as="geometry">
            <mxPoint x="1055.52" y="341.97" as="sourcePoint" />
            <mxPoint x="1105.52" y="291.97" as="targetPoint" />
          </mxGeometry>
        </mxCell>
        <mxCell id="Wt6RqohvD_NQ85V1_xqK-109" value="GPSCoordinates" style="rounded=1;whiteSpace=wrap;html=1;fontSize=12;glass=0;strokeWidth=1;shadow=0;fillColor=#ffe6cc;strokeColor=#d79b00;" parent="WIyWlLk6GJQsqaUBKTNV-1" vertex="1">
          <mxGeometry x="171.88" y="343" width="95.75" height="40" as="geometry" />
        </mxCell>
        <mxCell id="Wt6RqohvD_NQ85V1_xqK-110" value="" style="endArrow=classic;html=1;rounded=0;entryX=0.5;entryY=1;entryDx=0;entryDy=0;exitX=0.199;exitY=0.02;exitDx=0;exitDy=0;exitPerimeter=0;" parent="WIyWlLk6GJQsqaUBKTNV-1" edge="1">
          <mxGeometry width="50" height="50" relative="1" as="geometry">
            <mxPoint x="254.90449999999998" y="620.8" as="sourcePoint" />
            <mxPoint x="256.7550000000001" y="383" as="targetPoint" />
            <Array as="points">
              <mxPoint x="257" y="440" />
              <mxPoint x="257" y="430" />
            </Array>
          </mxGeometry>
        </mxCell>
        <mxCell id="Wt6RqohvD_NQ85V1_xqK-112" value="" style="endArrow=classic;html=1;rounded=0;exitX=1;exitY=0.5;exitDx=0;exitDy=0;entryX=0;entryY=0.5;entryDx=0;entryDy=0;" parent="WIyWlLk6GJQsqaUBKTNV-1" source="Wt6RqohvD_NQ85V1_xqK-109" target="7yGm6yMmNK_dDhONly1p-6" edge="1">
          <mxGeometry width="50" height="50" relative="1" as="geometry">
            <mxPoint x="386.75" y="383" as="sourcePoint" />
            <mxPoint x="436.75" y="333" as="targetPoint" />
          </mxGeometry>
        </mxCell>
        <mxCell id="Wt6RqohvD_NQ85V1_xqK-114" value="" style="endArrow=classic;html=1;rounded=0;entryX=0.5;entryY=0;entryDx=0;entryDy=0;exitX=0;exitY=0.25;exitDx=0;exitDy=0;" parent="WIyWlLk6GJQsqaUBKTNV-1" source="WIyWlLk6GJQsqaUBKTNV-7" target="Wt6RqohvD_NQ85V1_xqK-109" edge="1">
          <mxGeometry width="50" height="50" relative="1" as="geometry">
            <mxPoint x="345" y="353" as="sourcePoint" />
            <mxPoint x="395" y="303" as="targetPoint" />
            <Array as="points">
              <mxPoint x="220" y="222" />
            </Array>
          </mxGeometry>
        </mxCell>
        <mxCell id="lvkED5tWsXzfGvU_Zecs-0" value="LowerBound" style="rounded=1;whiteSpace=wrap;html=1;fontSize=12;glass=0;strokeWidth=1;shadow=0;" parent="WIyWlLk6GJQsqaUBKTNV-1" vertex="1">
          <mxGeometry x="939.52" y="441.97" width="79" height="40" as="geometry" />
        </mxCell>
        <mxCell id="lvkED5tWsXzfGvU_Zecs-1" value="UpperBound" style="rounded=1;whiteSpace=wrap;html=1;fontSize=12;glass=0;strokeWidth=1;shadow=0;" parent="WIyWlLk6GJQsqaUBKTNV-1" vertex="1">
          <mxGeometry x="1033.02" y="441.97" width="79" height="40" as="geometry" />
        </mxCell>
        <mxCell id="lvkED5tWsXzfGvU_Zecs-2" value="" style="endArrow=classic;html=1;rounded=0;exitX=0.25;exitY=1;exitDx=0;exitDy=0;entryX=0.841;entryY=-0.003;entryDx=0;entryDy=0;entryPerimeter=0;" parent="WIyWlLk6GJQsqaUBKTNV-1" source="7yGm6yMmNK_dDhONly1p-16" target="lvkED5tWsXzfGvU_Zecs-0" edge="1">
          <mxGeometry width="50" height="50" relative="1" as="geometry">
            <mxPoint x="1034.52" y="367.97" as="sourcePoint" />
            <mxPoint x="1035.52" y="387.97" as="targetPoint" />
          </mxGeometry>
        </mxCell>
        <mxCell id="lvkED5tWsXzfGvU_Zecs-3" value="" style="endArrow=classic;html=1;rounded=0;exitX=0.75;exitY=1;exitDx=0;exitDy=0;" parent="WIyWlLk6GJQsqaUBKTNV-1" source="7yGm6yMmNK_dDhONly1p-16" edge="1">
          <mxGeometry width="50" height="50" relative="1" as="geometry">
            <mxPoint x="1008.52" y="428.97" as="sourcePoint" />
            <mxPoint x="1044.52" y="441.97" as="targetPoint" />
          </mxGeometry>
        </mxCell>
        <mxCell id="lvkED5tWsXzfGvU_Zecs-6" value="Longitude" style="rounded=1;whiteSpace=wrap;html=1;fontSize=12;glass=0;strokeWidth=1;shadow=0;" parent="WIyWlLk6GJQsqaUBKTNV-1" vertex="1">
          <mxGeometry x="80" y="343" width="69" height="40" as="geometry" />
        </mxCell>
        <mxCell id="lvkED5tWsXzfGvU_Zecs-7" value="" style="endArrow=classic;html=1;rounded=0;exitX=0;exitY=0.5;exitDx=0;exitDy=0;entryX=1;entryY=0.5;entryDx=0;entryDy=0;" parent="WIyWlLk6GJQsqaUBKTNV-1" source="Wt6RqohvD_NQ85V1_xqK-109" target="lvkED5tWsXzfGvU_Zecs-6" edge="1">
          <mxGeometry width="50" height="50" relative="1" as="geometry">
            <mxPoint x="285" y="353" as="sourcePoint" />
            <mxPoint x="335" y="303" as="targetPoint" />
          </mxGeometry>
        </mxCell>
        <mxCell id="lvkED5tWsXzfGvU_Zecs-12" value="M" style="text;html=1;align=center;verticalAlign=middle;whiteSpace=wrap;rounded=0;" parent="WIyWlLk6GJQsqaUBKTNV-1" vertex="1">
          <mxGeometry x="39" y="152" width="33" height="21" as="geometry" />
        </mxCell>
        <mxCell id="LXWIr10QOpBaZc8oX9JX-2" value="" style="endArrow=classic;html=1;rounded=0;exitX=0.25;exitY=0;exitDx=0;exitDy=0;entryX=1;entryY=0.5;entryDx=0;entryDy=0;" parent="WIyWlLk6GJQsqaUBKTNV-1" source="7yGm6yMmNK_dDhONly1p-19" target="Wt6RqohvD_NQ85V1_xqK-16" edge="1">
          <mxGeometry width="50" height="50" relative="1" as="geometry">
            <mxPoint x="675" y="233" as="sourcePoint" />
            <mxPoint x="725" y="183" as="targetPoint" />
            <Array as="points">
              <mxPoint x="740" y="130" />
              <mxPoint x="604" y="130" />
            </Array>
          </mxGeometry>
        </mxCell>
        <mxCell id="LXWIr10QOpBaZc8oX9JX-5" value="M" style="text;html=1;align=center;verticalAlign=middle;whiteSpace=wrap;rounded=0;" parent="WIyWlLk6GJQsqaUBKTNV-1" vertex="1">
          <mxGeometry x="419" y="622" width="29" height="21" as="geometry" />
        </mxCell>
        <mxCell id="gLRjnHzjltlTBfM6pdDn-0" value="Country" style="rounded=1;whiteSpace=wrap;html=1;fontSize=12;glass=0;strokeWidth=1;shadow=0;" parent="WIyWlLk6GJQsqaUBKTNV-1" vertex="1">
          <mxGeometry x="497.5" y="238" width="73.5" height="40" as="geometry" />
        </mxCell>
        <mxCell id="gLRjnHzjltlTBfM6pdDn-1" value="" style="endArrow=classic;html=1;rounded=0;exitX=1;exitY=0.25;exitDx=0;exitDy=0;entryX=0.5;entryY=0;entryDx=0;entryDy=0;" parent="WIyWlLk6GJQsqaUBKTNV-1" source="WIyWlLk6GJQsqaUBKTNV-7" target="gLRjnHzjltlTBfM6pdDn-0" edge="1">
          <mxGeometry width="50" height="50" relative="1" as="geometry">
            <mxPoint x="435" y="343" as="sourcePoint" />
            <mxPoint x="485" y="293" as="targetPoint" />
            <Array as="points">
              <mxPoint x="534" y="223" />
            </Array>
          </mxGeometry>
        </mxCell>
        <mxCell id="gLRjnHzjltlTBfM6pdDn-2" value="Item" style="rounded=1;whiteSpace=wrap;html=1;fontSize=12;glass=0;strokeWidth=1;shadow=0;fillColor=#ffe6cc;strokeColor=#d79b00;" parent="WIyWlLk6GJQsqaUBKTNV-1" vertex="1">
          <mxGeometry x="211" y="620" width="195.5" height="40" as="geometry" />
        </mxCell>
        <mxCell id="gLRjnHzjltlTBfM6pdDn-5" value="" style="endArrow=classic;html=1;rounded=0;entryX=0.825;entryY=0.995;entryDx=0;entryDy=0;entryPerimeter=0;exitX=0.403;exitY=-0.019;exitDx=0;exitDy=0;exitPerimeter=0;" parent="WIyWlLk6GJQsqaUBKTNV-1" source="gLRjnHzjltlTBfM6pdDn-2" target="WIyWlLk6GJQsqaUBKTNV-7" edge="1">
          <mxGeometry width="50" height="50" relative="1" as="geometry">
            <mxPoint x="480" y="465" as="sourcePoint" />
            <mxPoint x="306" y="373" as="targetPoint" />
            <Array as="points">
              <mxPoint x="290" y="420" />
              <mxPoint x="430" y="420" />
            </Array>
          </mxGeometry>
        </mxCell>
        <mxCell id="g5B4zBrDZyewlIye0yO9-0" value="" style="endArrow=none;rounded=0;endFill=0;startArrow=classic;startFill=1;entryX=0.5;entryY=0;entryDx=0;entryDy=0;exitX=0.058;exitY=1;exitDx=0;exitDy=0;exitPerimeter=0;" parent="WIyWlLk6GJQsqaUBKTNV-1" source="gLRjnHzjltlTBfM6pdDn-2" target="7yGm6yMmNK_dDhONly1p-21" edge="1">
          <mxGeometry width="50" height="50" relative="1" as="geometry">
            <mxPoint x="244.07600000000002" y="661" as="sourcePoint" />
            <mxPoint x="332.73699999999985" y="745.9599999999998" as="targetPoint" />
            <Array as="points" />
          </mxGeometry>
        </mxCell>
        <mxCell id="uiQut5pqw0-m5vwZ60sW-0" value="" style="rounded=0;whiteSpace=wrap;html=1;" parent="WIyWlLk6GJQsqaUBKTNV-1" vertex="1">
          <mxGeometry x="750" y="610" width="413.5" height="208" as="geometry" />
        </mxCell>
        <mxCell id="uiQut5pqw0-m5vwZ60sW-1" value="" style="group" parent="WIyWlLk6GJQsqaUBKTNV-1" vertex="1" connectable="0">
          <mxGeometry x="770" y="620" width="372.52" height="51.69" as="geometry" />
        </mxCell>
        <mxCell id="uiQut5pqw0-m5vwZ60sW-2" value="" style="shape=image;imageAspect=0;aspect=fixed;verticalLabelPosition=bottom;verticalAlign=top;image=data:image/jpeg,/9j/4AAQSkZJRgABAQAAAQABAAD/2wBDAAMCAgMCAgMDAwMEAwMEBQgFBQQEBQoHBwYIDAoMDAsKCwsNDhIQDQ4RDgsLEBYQERMUFRUVDA8XGBYUGBIUFRT/2wBDAQMEBAUEBQkFBQkUDQsNFBQUFBQUFBQUFBQUFBQUFBQUFBQUFBQUFBQUFBQUFBQUFBQUFBQUFBQUFBQUFBQUFBT/wAARCAB1AZADASIAAhEBAxEB/8QAHwAAAQUBAQEBAQEAAAAAAAAAAAECAwQFBgcICQoL/8QAtRAAAgEDAwIEAwUFBAQAAAF9AQIDAAQRBRIhMUEGE1FhByJxFDKBkaEII0KxwRVS0fAkM2JyggkKFhcYGRolJicoKSo0NTY3ODk6Q0RFRkdISUpTVFVWV1hZWmNkZWZnaGlqc3R1dnd4eXqDhIWGh4iJipKTlJWWl5iZmqKjpKWmp6ipqrKztLW2t7i5usLDxMXGx8jJytLT1NXW19jZ2uHi4+Tl5ufo6erx8vP09fb3+Pn6/8QAHwEAAwEBAQEBAQEBAQAAAAAAAAECAwQFBgcICQoL/8QAtREAAgECBAQDBAcFBAQAAQJ3AAECAxEEBSExBhJBUQdhcRMiMoEIFEKRobHBCSMzUvAVYnLRChYkNOEl8RcYGRomJygpKjU2Nzg5OkNERUZHSElKU1RVVldYWVpjZGVmZ2hpanN0dXZ3eHl6goOEhYaHiImKkpOUlZaXmJmaoqOkpaanqKmqsrO0tba3uLm6wsPExcbHyMnK0tPU1dbX2Nna4uPk5ebn6Onq8vP09fb3+Pn6/9oADAMBAAIRAxEAPwD9U6KKKACiiigAooooAKKKKACiiigAooooAKKKKACiiigAooooAKKKKACiiigAooooAKKKKACiiigAooooAKKKKACiiigAooooAKKKKACiiigAooooAKKKKACiiigAooooAKKKKACiiigAoopGYKCSQAOSTQAtFeHeLP2yPhv4U1SWwF7eazLExSSTS7fzYlYdQHZlDfVcisT/AIbu+HX/AD56/wD+Acf/AMcr1I5XjZpSjSdvQ+fnxBlVOThLERuvM+jKK+c/+G7vh1/z56//AOAcf/xyj/hu74df8+ev/wDgHH/8cqv7Jx3/AD5Zn/rHlH/QTH7z6Mor5z/4bu+HX/Pnr/8A4Bx//HKP+G7vh1/z56//AOAcf/xyj+ycd/z5Yf6x5R/0Ex+8+jKK+c/+G7vh1/z569/4Bx//AByvSfhh8e/BnxcaSHQNSJv4l3vYXcZinC/3gp4Ye6k471jVy/F0I89Sm0u9jqw+dZdi6ipUK8ZSeyvq/Q9Dooorzz2gooooAKKKKACiiigAooooAKKKKACiiigAooooAKKKKACiiigAooooAKKKKACiiigAooooAKKKKACiiigAooooAKKKKACiiigAooooAK8Q/bG8VX3hX4I6h9glaCXUbmLT3kQ4ZY3yXAPuqlfoxr2+vnb9uv8A5Ipb/wDYXt//AECSvTyyKljaSktOZHgZ/OVPKsTKDs+Vn5+0UUV+1H8phRRRQBLa273dzDBHtDyusa7jgZJwMn05r7H8Y/sOaFoXwzvr6z1q+k8R2Fm9080zL9mmZFLMgTblQcEA7iR3zXxmOtfaHxI8aa5P+xL4e1CTU7hr7UBBa3dwW+eaIs6lWPuFAJ6nv1NfPZrPEwqUFQnypys/67bn2/DlLA1aGMeLpc7jDmXlbR287ta+R5j+y1+znpXxog1fVNdvrmDTrGRLdLeydUkkkZdxLMQcKARwByT145xPit4In/Zl+NemHQtSlnSAQ6lZyyEeaqF2Vo5MYB+6wPABB6da6n9hTXL+1+LN3pcV1ImnXmnyyz2wPyO6FdjEeo3Nz7mvMvj7rN9rfxq8Wy31zJdPDqcttEZD9yJHKog9AAP85qYPETzOrSqTvT5b29dP8zSqsHSyGhiaNPlrc7XNfW61/K1v6v8AqJBJ50KOBgMobH1qSoLH/jzg/wCua/yFT1+TPc/o9bI5Hxb8W/B3gTUY7DxB4hsdJvJIhMsNzJtYoSQG6dMg/lU/g74m+FviBLdR+Hdcs9Xe1CtMtq+4xhshSfrg/lXxd+3mf+LuaV/2Bo//AEbLXS/8E+f+Qz41/wCve0/9Dlr6qeUUo5Z9d5nzWTtpbV2PzulxNiKmfPKXCPJdq+t9It97H1f4x+I3hr4fLaN4j1q00dbssIDdPt8wrjdj6bh+dY+ifHb4f+I9WtdM03xZpl5f3T+XDBHN80jdgOOtfPv/AAUJ/wCPHwL/ANdb3/0GGvjizvJ7C7guraV4LmB1lilQ4ZHU5VgfUEA11ZdkNLG4SNdzak79raNo87O+MMRlOZTwcaUZQjy976pN9bdT9ha5Txf8VfCXgG8gtPEOv2WkXM8ZljjuZNpdc4yOOmeKxPgJ8Vofi/8ADqw1nci6lH/o2oQr/wAs51A3HHYMMMPZvavl39v0/wDFwfDX/YLf/wBHNXi4HLvb436pXurXvbyPq82zv6nlX9pYVKSfLa+1n6H2h4W8XaN420pdT0LUYNUsGdoxcW7blLL1GfasPxP8Z/BHgzV5NL1vxNp+mahGqu9vcSYcBhkHGO4rzX9iL/khlt/2ELr/ANCFfMv7aJ/4v5qv/Xpa/wDosV14TKqWIzCphJSdo3166NI87MeIa+CyajmUIJyny3WttU338j7O/wCGkfhl/wBDrpP/AH+P+FH/AA0j8Mv+h10n/v8AH/Cvzv8AAXwi8XfE+G9l8M6Q+qR2bKk5WaNNhYEqPnYZzg9K6v8A4ZP+K3/Qpy/+BcH/AMXXszyPLaUnCeIs10bifLUuLs8rwVSlguaL2ajNr70feWi/Hf4f+ItVtdM03xZpt5f3TiOG3ily0jHsBiu9r4G+Cf7N/wAR/CvxY8LavqnhuS106zvllnmNzCwRQDk4Dkn8K+k/2pPjFcfCH4eLJpjBNd1SQ2tnIRnyfly8uD1KjGPdhXgYvLqUcTTw+Cnz83mn+XlqfY5bnmIngK2NzSl7Lk6WaurLv3eh2/jT4u+Dfh46x+IfEVjpk5G4W7ybpiPXy1y2PfFcjZ/tZfCm9mESeLYY2PAM9tPGv/fTIBX58eE/CXiT4teL/wCz9Lil1fWrwtNLLPLyQOWkkkY9Oep9QK9K8Sfsb/Erw5pE2oCystTSFS8kGnXXmTADrhSq7voMn2r3XkeX0LU8RXtN+aX4O/5nyEeLs6xilXwWETpLyk/xTS+5H6F6Jr+m+JdPjv8ASdQttSspPu3FpKsiH8VJFX6/K74Q/FnXfhD4tttR0mWV4HkVbvTcnZdx55Ur/e64bqD7ZFfqDZ65aXegw6wXMFjJbC733C+WUjK7ssD93A6g9MV8/mmVTy2aSfNGWz/Q+04e4hp55Rk3HknDddPVPt+RauruCxt5Li5mjt4I1LPLKwVVHckngCvL9X/al+Fui3LQT+L7SWRTg/ZI5bhf++o1I/Wviz9ob9oPVPjF4huLa1uJbXwnbSFbOyUlRMAeJpR/Ex6gHhRwOck4/wAOv2d/HXxR0o6noekqdNDFUu7uZYY5COCEzy2DxkDGeM17dDh+jToqtj6nLfporfN9T5TGcZ4mvinhsnoe0t1abvbqkraebZ+gXhL49/D/AMcXaWmjeKbC4u5OEt5WMMjn0VZApJ9hXf1+S/jv4e+Ifhnrn9leI9Nk0682iSPcQySLnhkcEhhnuDwfSvr39jH483/i1J/BXiG7a8vrOHz9Pu5mzJLCuA0bMfvFcggnnGfSubMcijQofWcLPmh+ndNbnfknF08Zi/qGYUvZ1Hot1r2aeqfbXyPoNvif4UViDr1kCDgjzKT/AIWh4U/6D1l/38r59n+F3i1p5SNCuiC7EHKev+9XOappd5ot9JZX0D211HjfE5GVyMjp7GnDKMJUdoVbvyaCrxJmNFc1SgorzUkfUv8AwtDwp/0HrL/v5V7R/Gmh+ILprbTtUt7ydULmOJ8kKMAn9RXy1ong/W/EkEk2madNexRtsdoyuA2M45I7V6f8F/BWu+HvFk11qWmTWdubR4xJIVxuLIQOCfQ1zYnLcLQpyaqe8ul0d2AzzH4utTjKh7knulK337HqGofEHw5pV7LaXesWtvcxHa8TvgqfQ1X/AOFoeFP+g9Zf9/K+eviof+Lh67/13H/oK1U0DwJr3iize60uwa6gRzGziRVwwAOOSPUVtDKMP7KNWpNq6Xbqc1TiPG/WZ0KNJSabWibej8mfSH/C0PCn/Qesv+/lW9K8d+H9bvks7DVra6unBKxRvljgZP6V87/8Kf8AGH/QHf8A7/R//FV1vwr+HPiPw943sr7UNNa3tI0lDSGRGwShA4Bz1rCtl+ChTlKFa7SdtUdmGzjNKteFOphrRbSb5ZaK+57zWNrnjDRfDWBqepW9o55Ebvlz/wABHP6Vyfxg+Ir+DtOisrBwNVu1JVyM+SnQvj1zwPxPavnqzs9Q8SaqsMCTX+oXLE9dzuepJJ/mawwOV/WIe2qy5Y/19x1Zrn/1Kr9Ww8Oef4K/TTVs+lovjH4Pmk2DWUU+rxSKPzK11dhqVpqtstxZXMV1A3SSFwyn8RXzBrXwl8T6Dpz3tzYK8EY3SGCVZGQdyQOcD2zWb4N8ZX3grVo7yzkYxEjz7fPyTL3BHr6HtXZPKKFWm5YWpdrzT/LY8unxJisPVVPMKPKn5NP1s73Prqiq2m6hDq2n217bPvguI1lRvUEZFWa+VaadmfocWpJSWzCiiikMKKKKACvnb9uv/kilv/2F7f8A9Akr6Jr52/br/wCSKW//AGF7f/0CSvVyr/fqP+JHznEf/IoxP+Fn5+1ueB/B2o/EDxZpnh7SkV7+/l8qMucKowSzMfRVBJ+lYddX8K/H0/ww8f6P4mt4BdNYykvATjzI2Uo657EqxwfXFfsdZ1FTk6XxWdvXofzDhVRlXprEO0Lrmtva+v4Htmvfse2baZq9v4U8cWnibxXoyb77RUiVHzjlVw5IbsAw5PBINeS/8KE+I/8A0I+u/wDgE9e7T/tF/C7wLL4j8VeA9F1L/hNtfjYOL5SILd2bcxI3EY3fMVXOSAMgVwP/AA2l8UP+gjpx/wC4clfOYapmrTtFNf3/AHXtrpHpfY+5x1Dh2Mo803F66Uveja+l3LW9t0ij8Nf2VfHHjTxTb2OraNf+GtLH7y5v76AptQHkID95z0A/E8Cu4/ai+J/hnTPCOnfCbwfELjT9HkT7Td+YXVHj3YiVv4myxLN0B4HfHDa7+138TNf0i706bWLe2huYzG8lnaJFKFPXa45XI7jmuY+DXwa1r4zeJ103TVNvYwkPe6i65jtkP/oTnnC9/YAmtnRrOaxWYySjT1SV7X7vu+yOVYnDRpPLskhKU62kpSS5rfypLRLq3/S9O/YW0m9ufi9c6hFayvY2unSpNcBfkjZ2TYpPqcHA9jXk3xjYP8YPGJUhgdauuQf+mrV9E/GL4x6H8BvCx+GfwzKw6hGCmo6qjBnhcjD/ADj7057t0QcDkAL5H+zx8BNU+M/idLqdXt/DdnOr318+f3pBDGFCfvOe5/hByecA50K1p1czr+5BpJJ7tLr8+iNsZhb0qGQ4R+0qxk5Sa2Tdk0v8NtX/AEv0jsf+POD/AK5r/IVPTUUIoVRgAYAHanV+UvVn9FpWVj4H/bz/AOSuaV/2Bo//AEbLXS/8E+f+Qz41/wCve0/9Dlrmv28/+SuaV/2Bo/8A0bLXS/8ABPn/AJDPjX/r3tP/AEOWv0er/wAiD5L/ANKR+F4f/ks3/il/6QzU/wCChX/Hj4F/663v/oMNfKqeCb6fwC/iyEebYQaj/Z1wAOYmMYeNj7Nlh7ED1r6q/wCChX/Hj4F/663v/oMNN/Yz8J6f46+DPjnQNUi82xv77yZB3XMK4YehU4IPqBVYHF/Usop1uievo5O5Ob5as14mr4S9m4q3qoJr/gnjv7K3xhPwq+IsMN7P5egawVtb3cflibP7ub/gJOD/ALLH0ru/2/Dn4g+GT/1C3/8ARzV8+eP/AATqHw78Yap4d1NcXVjMYy2MCVOqOPZlIP41q/EH4k3XxD0fwnHqBeXUNFsG06SdznzkEhaNs+u0hT/u57168sHGeNpY+ls00/PTR/p9x81HM6lHKq+T4nRxknG/RqXvR/X7z7Y/Yi/5IZbf9hC6/wDQhXzL+2j/AMl81X/r0tf/AEWK+mv2Iv8Akhlt/wBhC6/9CFfMv7aP/JfNV/69LX/0WK+ey3/kd1/+3vzR9rnv/JKYT/tz/wBJZ137Gnxd8I/DHTPFUXifWY9KkvJ7d4FkikfeFVwx+VT0yOvrX0d/w1h8J/8Aob7f/wABp/8A43Xwd8Mfgf4s+LtvqE3hu2triOxdEnM9ysWCwJXGev3TXb/8MW/FL/oG6f8A+DBK6sfl+WVsTOpXr8sna6ul0XdHBk+c59hcDTo4TCc9NXs+WTvq+qdtz748F+ONC+IWirq/h6/XUtOMjRCdEZBuXhhhgDx9K+Yf+Cg2l3Mul+C9RVWNpDNc28jAcK7rGy5+ojb8q9i/Zi+HmtfDD4XxaJr8MUGoLeTzFIZRIu1iCvI+ld3458D6P8RfDN5oOuWourC5UZAO10Ycq6N/CwPIP9K+PoV6WXZgqlN80It/NbH6XjMJiM7yV0Ky5Kk4ptaq0k07d91Y/M74MfFm++DPjWPX7K1jv1aFra4tZWKiWJiCQGGdpBUEHB6dK+v/AAz+3X4E1bYmrWeqaFKcbmkhE8S/8CQ7v/Ha8f8AiB+wt4r0W4lm8K3tt4hsckpBO4t7lR6HPyN9QR9K8O8V/Czxf4GVn17w3qWmQqcGeaAmL/v4Mr+tfd1aGV5y1U5ry8nZ/c/8j8hw+L4g4Yi6Ps2oJ31jeP8A4Ev8z9GfhdbfC7WJ7zWvBEOh3N3PK09xc2aKbhXYkktn50ySeOBXP/tf+KJfDHwL1oQOY5tReLTwwPO2RvnH4orD8a/PXwj4u1bwL4htNb0S8ex1G2bckqHhh3Vh/Ep6EHg19g/tM+Mk+KH7K3h3xRbReUl1f2000QORE4WWN1+gfI/KvDrZTLCY6hOU3ODklrvfsz63C8SQzLKMXShTVOpGDdo7NPRtdrX1+Wp8W2Fm+o31taR/6yeVYl+rEAfzr9cfDOgWnhXw9p2j2MaxWljbpbxKox8qqB/TP41+T3g+ZLbxboc0hAjjv7d2J9BKpNfrmK14qlK9GHTX9DDw8pw5cTU6+6vlr/XyPCP2t/g3q/xb8KaKvh6yivNZsb0n95KkWIHRg/zMR/EsfFePfA79lv4kfD/4n+HvEV3Dp1raWc5+0Bb0M5iZWVwAoOThuma+07q7gsoTLcTRwRAgF5GCjnpyaSG+t7nHlTxS5/uOD/KvnKGbYmhhXhYpcjutV336n2+L4cwOLzBZhUbVRWejSV47Pa/TuTYr5c+Mv/JSNX/7Zf8Aota+pK+W/jL/AMlI1b/tl/6LWt8j/wB4l/h/VHLxZ/uUP8S/JnpH7OY/4p7Vf+vsf+gCvWz0ryT9nP8A5F3Vf+vsf+gCvWz0rhzP/fKnr+h7GRf8i2j6fqz5S+Kn/JQ9d/67j/0Fa734L+PNB8L+GLq11TUEtLh7tpFRkY5UqozwD6GuC+Kn/JQ9d/67j/0FaZ4X+HGueMLCS80yGGSBJDExkmCHcAD0P1FfX1KVKtgoRrS5Y2jr8vM/NaNfEYbNKtTCw5pXlpZvr5Hv/wDwuHwf/wBBqL/v1J/8TXTaTq1prunQ39hMLi0mBMcoBAYAkd+eoNfOQ+Bvi7P/AB623/gUte7fDvRbvw74M0zTr5VS6gRldUbcAS7Hr9CK+WxuGwlGmpUKnM7909Pkff5VjsxxVZwxdHkile9mtbruz52+KurPq/j7WJGbKwy/ZkHoqfL/ADyfxrv/ANnLSI2Gsaoygyhkto29Bjc35/L+VeXeNomh8Za5G33lvZv/AEM17J+znID4a1RP4heZP0Ma/wCBr6HH/u8uUYbWivyPjco/fZ25VN7yfz1PWHQSKVYBlIwQRwRXzhffA3xM+p3YtrS3S085/JZ7hR8m47eBnHGK+kah+2QeYyedHvU4K7xkV8phMZVwnN7LqfoWY5Zh8yUFXbXLe1rLf5HO/DbQ9R8N+ELPTdT8r7Rbl1HlPuGwsSvOB611FICGGQQR6ilrjqTdWbnLd6npUKUaFKNKO0UkvkFFFFZm4UUUUAFfO37df/JFLf8A7C9v/wCgSV9E187ft1/8kUg/7C9v/wCgSV6uVf79R/xI+c4j/wCRRif8LPz9ooor9oP5XCiiigAHWvsq38S3vww/Yj0fVPDRj0zUtRcRz3cSYkzJNIrOD/f2qAG7Dp0FfHEEfnTRx7lTewXc3QZOMn2r9GPH/wAENMT9mmXwampTLBo1ibuG9cj5pYg0uW7bCS3HYEc8V8xndalCWHhV2c036L/h0foHCmGr1YY2rQ3VNpO9mm9Vb5J6nxt+z98F5/jh41ksZbw2mmWai5v5wcylC2AqZ/iY55PTk89D+kvhnwzpng7QrPR9Hs47HTrRBHFBEOAPU+pJ5JPJJya+NP8Agn6c+L/FnobCA/8AkQ19v18rxHiKk8W6DfuxtZeqP0XgfBUKWXLFRj+8m3d9bJ2t6fqFFFFfJn6MfA/7ef8AyVzSv+wNH/6Nlrpf+CfP/IZ8a/8AXvaf+hy1tftbfAjxv8TviLp+qeG9GGoWMWmpbvKbqGLDiSQkYdgejDmtv9jv4M+L/hXqfiiXxPpQ02O9ht1gIuIpd5VpC33GOMbh19a+/q4mg8k9iprmstLq+66H4zQy/Frix4l0Zez5pe9yu3wvraxz3/BQr/jx8C/9db3/ANBhrY/YA/5ELxN/2FF/9ErWx+2P8I/FfxVtfCieF9MGpNYyXLXANxHFsDiPb99hnO09PStL9kH4X+Jfhb4R1yy8TacNOubm/E0SCeOXcnlKucoxA5B61wyr0v7DjR51zX2ur/E+h68MHiVxdPE+zl7O3xWfL8CW+2+hzn7bXwd/4SbwxH410yDdqWjpsvVQcy2uc7vcxk5/3S3pXwpX7DXNtFeW0tvPGs0MqFHjcZVlIwQR6EV8AfET9jTxzp/jPVIvC2jrqfh8yl7Oc3kKMI25CEO4OVztzjnANehw/mtOFJ4bETS5dm3bTt/X6HjcZ8PVqmIjjsFTcufSSim3fo7Lut/NeZ9DfsRf8kMtv+whdf8AoQr5l/bR/wCS+ar/ANelr/6LFfXX7LXgLXPhx8KYdG8Q2X2DUVvJ5TD5qSfKzDacoSOfrXhf7Tn7PHj/AOIfxd1DWtA0IX2my29vGkxu4Y8sqYYbWcHg+1c2X4ijDN61WU0ovms7q266ndnOBxVXhrC4enSk5rkvFJ3VovdbmP8AsafF3wj8MdN8VReJ9aj0qS8nt3gV4pH3hVcMfkU4xkda+j/+GsPhP/0OFv8A+Atx/wDG6+M/+GQfiz/0K6/+DC2/+OUf8MhfFn/oV1/8GFt/8cr0MXgcqxlaVeeISb7Sj2seLlub8RZZhYYSlgm4xva8J31bfRrufbnh/wDaR+G/inWrPSNK8Tw3eo3kgiggW3mUu56DJQAdO5rx39pv9pPx38KPGraDpVjptrYTW6XFrqE0LSySKRhuCwUFWBGMHt61518F/wBmT4k+Evit4X1jVfDwttOsr1Zp5hewPsUA5OFck9ewr6w+M3wW0T40+Gk03VC1reW5MlnqEIBkt3IweD95TgZU9cDoQDXhzp5dl+MhZ+0pta6p2d/L8j66nXzzOsrqtxdCsn7ujjdW296+/fujwv8AZy/a9h1NL3SfiNrKQX7zmW01OeNY4WQgZiYqAEwRkE8EHBORz7t4m+Nvw60bRLi51DxVotzaGM7oIbqO4eUY5URqSWz0xivibxj+xv8AEnwxdSCx02HxFZg/LcadMoYjtmNyGB9hn61zdl+zL8UL6cRR+C9QjYnG6fy4l/EswFevWyzK8VU9vTrqKfRNL/hj5rDZ9xDgKP1SthJTktE2pN/O3xHn2tXNre6zf3Flb/ZLKW4kkggP/LKMsSq/gCB+FfePgz4O3niH9jq18J3EZi1O9sXvYEk42TNKZ4QfT+EH6muL+CX7Ek+m6tba149mtpVt3EkWjWzeYrMDkec/QgH+Fcg9zjg/YAAUAAYA7Vy51m9Obp0sK78jTv5rb18z0OFeGq9JVsRmEeX2kXHl62lu2unkj8eriCewupIZo3t7mFyjxuMNG6nBBHYgj9K/Rf4P/tR+DfGvhKxOsa5Z6Jr0MKx3ltqEwh3OBgujNgMrdeDkZwaw/wBoP9kiy+KF9N4g8O3EOj+IpBmeOVT9nvD/AHmwMo/+0Ac9xnmvlTWP2W/iho1y0L+Erq7APEllJHMje4Ib+YFelVrZfnlCPtanJJeaTXffdHg4fDZzwji6nsKLq05dUm00tnpqmvPz33PXf2xP2hND8Z6Na+D/AAxex6pb+etzf3sHMR2Z2Rq3RuTuJHHAGTzjzn9kHwZdeK/jTpNxGrix0fdqFy68KNoIjB9y5HHoD6VN4M/Y4+I/im7jF9psXhyyJ+e51GVSwHfEaEsT9cD3r7e+D/wd0T4M+Gf7K0gNNPMwku76YDzbmTGMnHQDoFHA9ySTz4rGYPLME8HhZc0nfz33ba09Duy7LMzz7No5nmNN04Radmmttkk9bX3fqd1Xy58Zf+Skat/2y/8ARa19SV4L8S/hh4l8Q+NdRv7DThPaS7NkhnjXOEAPBbPUV81k1WFKvJ1JJK3XTqj7ziahVxGDhGjByfMtk30fY3v2c/8AkXdV/wCvsf8AoAr1s9K87+C3hPVfCWjahBqtsLWWW4EiKJFfK7AM/KT3FeiGuLMJxnipyi7r/gHqZLTnSy+lCommls9Huz5S+Kn/ACUPXf8AruP/AEFa734L+PNB8LeGLq11TUUtLh7tpFRkdsqVUZ4B9DWd4++FfifW/GWq31lpomtZ5d0bmeNdw2gdC2e1c/8A8KW8Y/8AQJX/AMCYv/iq+slLCYnCwo1KqWi6q+iPzyMMwwOYVMTRoN6y3jJqzfke4f8AC4fB3/Qbi/79Sf8AxNXdG+I/hzxDqMdhp+qJc3cgJWJY3BIAyeSoHSvAv+FLeMf+gSv/AIExf/FV1nwt+GfiTw342sr/AFHTxBaRpKGkE8bYJQgcAk9a8itgcBClKUK12k7arc+iwub5vVrwp1cPaLaTfLLRX16mL8dfDMmkeLm1FUP2TUVDhgOBIAAw/IA/iaj+DXj618G6rdW+ouYrC9C5mxkROucE+xBIP4V9AeJPDdj4r0mXTtQi82CTkEHDI3ZlPYivBPEfwI8QaVO7acE1a16qyMElA91Jxn6GurCYyhisN9VxLs7W+7bXucOY5bi8vx39oYKPMm72Wtm901vZ+R7HrHxR8NaRpz3R1W2ujtykNtIHeQ9gAP5mvl7WNTl1rV7zUZwBNcytM2OxJzj8On4Vv2/wr8WXEoRdCuUJ7yFVH5k16b8PfgZ/Zd5DqWvvHPNEQ8VlEdyK3Yuf4seg4+tbUfqeVxlNT5m/S/pocmJ/tPP6kKcqXJFd00vV339Edr8LtCl8PeB9NtrgMty6GaVWPKs53Y/AED8K6yiivjatR1ZyqS3bufp1CjHD0o0Y7RSX3BRRRWZuFFFFABXD/Gf4aQ/Fr4d6p4ceYW08wWW2uGGRFMh3ISPTPB9ia7iitKVSVGaqQdmndGFehTxNKVGqrxkmmvJn5S+Lfg/4y8EapLYat4c1CKRGIWWK3eWKQeqOoIYf54rD/wCET1z/AKAupf8AgHL/APE1+uuKMfX86+1jxTUSXNSTfr/wD8rn4eUHJuGIaXnFP8br8j8iv+ET1z/oC6l/4By//E0f8Inrn/QF1L/wDl/+Jr9dcfX86MfX86r/AFqn/wA+fx/4Bn/xDyl/0Ev/AMB/4J+RX/CJa5/0BdR/8A5f/ia7+PxN8X/Fvh2HwbG/iTUdLZVhWwW1clkHRGfbuKjjhmxgegr9NsfX86MVlU4l9pZyoJtbXd7P7joo8BqhdQxckpaOytddnqeF/spfAm7+D/he9u9aCL4g1ZkaeFGDC2jXOyPcOC2WJJHGSBzjNe60UV8licRUxdWVaruz9IwOCo5dhoYWgrRj/Tb829QooormO8KKKKACiiigAooooAKKKKACiiigAooooATGaMD0FLRQAUUUUAFJgHtS0UAJjFLRRQAUUUUAFFFFABRRRQAUUUUAFFFFACYpaKKACiiigAooooAKKKKACiiigAooooAKKKKACiiigAooooAKKKKACiiigAooooAKKKKACiiigAooooAKKKKACiiigAooooAKKKKACiiigAooooAKKKKACiiigAooooAKKKKACiiigAooooAKKKKACiiigAooooAKKKKACiiigAooooAKKKKACiiigAooooAKKKKACiiigAooooAKKKKACiiigAooooAKKKKACiiigAooooAKKKKACiiigAooooAKKKKACiiigAooooAKKKKACiiigD//2Q==;" parent="uiQut5pqw0-m5vwZ60sW-1" vertex="1">
          <mxGeometry y="4.178732744065947" width="140.32122951633724" height="41.048092164067924" as="geometry" />
        </mxCell>
        <mxCell id="uiQut5pqw0-m5vwZ60sW-3" value="" style="shape=image;imageAspect=0;aspect=fixed;verticalLabelPosition=bottom;verticalAlign=top;image=data:image/jpeg,/9j/4AAQSkZJRgABAQEAeAB4AAD/4QAiRXhpZgAATU0AKgAAAAgAAQESAAMAAAABAAEAAAAAAAD/4gKgSUNDX1BST0ZJTEUAAQEAAAKQbGNtcwQwAABtbnRyUkdCIFhZWiAH4QAIAAcACgA0AC9hY3NwQVBQTAAAAAAAAAAAAAAAAAAAAAAAAAAAAAAAAAAA9tYAAQAAAADTLWxjbXMAAAAAAAAAAAAAAAAAAAAAAAAAAAAAAAAAAAAAAAAAAAAAAAAAAAAAAAAAAAAAAAtkZXNjAAABCAAAADhjcHJ0AAABQAAAAE53dHB0AAABkAAAABRjaGFkAAABpAAAACxyWFlaAAAB0AAAABRiWFlaAAAB5AAAABRnWFlaAAAB+AAAABRyVFJDAAACDAAAACBnVFJDAAACLAAAACBiVFJDAAACTAAAACBjaHJtAAACbAAAACRtbHVjAAAAAAAAAAEAAAAMZW5VUwAAABwAAAAcAHMAUgBHAEIAIABiAHUAaQBsAHQALQBpAG4AAG1sdWMAAAAAAAAAAQAAAAxlblVTAAAAMgAAABwATgBvACAAYwBvAHAAeQByAGkAZwBoAHQALAAgAHUAcwBlACAAZgByAGUAZQBsAHkAAAAAWFlaIAAAAAAAAPbWAAEAAAAA0y1zZjMyAAAAAAABDEoAAAXj///zKgAAB5sAAP2H///7ov///aMAAAPYAADAlFhZWiAAAAAAAABvlAAAOO4AAAOQWFlaIAAAAAAAACSdAAAPgwAAtr5YWVogAAAAAAAAYqUAALeQAAAY3nBhcmEAAAAAAAMAAAACZmYAAPKnAAANWQAAE9AAAApbcGFyYQAAAAAAAwAAAAJmZgAA8qcAAA1ZAAAT0AAACltwYXJhAAAAAAADAAAAAmZmAADypwAADVkAABPQAAAKW2Nocm0AAAAAAAMAAAAAo9cAAFR7AABMzQAAmZoAACZmAAAPXP/bAEMAAgEBAgEBAgICAgICAgIDBQMDAwMDBgQEAwUHBgcHBwYHBwgJCwkICAoIBwcKDQoKCwwMDAwHCQ4PDQwOCwwMDP/bAEMBAgICAwMDBgMDBgwIBwgMDAwMDAwMDAwMDAwMDAwMDAwMDAwMDAwMDAwMDAwMDAwMDAwMDAwMDAwMDAwMDAwMDP/AABEIAJgBYwMBIgACEQEDEQH/xAAfAAABBQEBAQEBAQAAAAAAAAAAAQIDBAUGBwgJCgv/xAC1EAACAQMDAgQDBQUEBAAAAX0BAgMABBEFEiExQQYTUWEHInEUMoGRoQgjQrHBFVLR8CQzYnKCCQoWFxgZGiUmJygpKjQ1Njc4OTpDREVGR0hJSlNUVVZXWFlaY2RlZmdoaWpzdHV2d3h5eoOEhYaHiImKkpOUlZaXmJmaoqOkpaanqKmqsrO0tba3uLm6wsPExcbHyMnK0tPU1dbX2Nna4eLj5OXm5+jp6vHy8/T19vf4+fr/xAAfAQADAQEBAQEBAQEBAAAAAAAAAQIDBAUGBwgJCgv/xAC1EQACAQIEBAMEBwUEBAABAncAAQIDEQQFITEGEkFRB2FxEyIygQgUQpGhscEJIzNS8BVictEKFiQ04SXxFxgZGiYnKCkqNTY3ODk6Q0RFRkdISUpTVFVWV1hZWmNkZWZnaGlqc3R1dnd4eXqCg4SFhoeIiYqSk5SVlpeYmZqio6Slpqeoqaqys7S1tre4ubrCw8TFxsfIycrS09TV1tfY2dri4+Tl5ufo6ery8/T19vf4+fr/2gAMAwEAAhEDEQA/AP34ooooAKK+df2uv+Csf7P/AOwj8SLHwj8VvHv/AAi3iLUdNj1i3tP7D1G+8y1eWWJZN9tbyIMyQSjaWDDbnGCCfK/+Ijn9jH/osQ/8JPXP/kKgD7eor4h/4iOf2Mf+ixD/AMJPXP8A5Co/4iOf2Mf+ixD/AMJPXP8A5CoCzPt6iviH/iI5/Yx/6LEP/CT1z/5Co/4iOf2Mf+ixD/wk9c/+QqAPt6iviH/iI5/Yx/6LEP8Awk9c/wDkKj/iI5/Yx/6LEP8Awk9c/wDkKgD7eor4h/4iOf2Mf+ixD/wk9c/+QqP+Ijn9jH/osQ/8JPXP/kKgD7ezj8OtFfP/AOyJ/wAFPvgX+314l1bSfhP42/4SzUPD1sl5fxf2Lf2JtomYqrA3VvGrZYYwpJr36PoeMc9cdaAHUUUUAFFFFABRRRQAUUUUAFFFFABRRRQAUUUUAFFFFABRRRQAUUUUAFFFFABRRRQAUUUUAFFFFABRRRQAUUUUAFFFFAH86v8Awdzf8pH/AAT/ANk1sf8A06arX5Y9q/U7/g7m/wCUj/gn/smtj/6dNVr8xPB2sWWgeKdPvdR0m31yxtJ1luNPuJZIo7xAwJQvG6uuQDyhDc9a0No6IzMfp1oUbx8vP0r9dv8AghN+wx+zv/wVVHxU/wCEy+DOn+Hf+EDGki1Gi+JtY/fC8F95gkMtyzMB9ljxg8FjX0p/wUr/AOCIv7LP7Fn7D/xA+KGh/C+61bVfCdpDcQ2uoeJ9TMExe6hhO7bOGwFkOAD2FA+a+h/PqOWK/wAS9R6UAbmCjlm6D1rtPjJ8RvDPxElsP+Eb+H+ieA0tVfzotN1K/vI7tm2kE/bJpNoGCPlAPvXH20yJco8kcdxCr72jbcolXcDtY7g2D045HXPSgZH/AJ/rQTtz/s9fbjP8q/Sz/gjh8NP2Yf8AgoN+0PrHw9+IXwUs/DMn9iT6xpd7o/ijV/LlNuVaSGSOSZwG8smVWQoB5TqQdwr4x/aa+MHwz+IF/e2fw5+Etj8P9Mh1F5rG+bXdR1LUZLT59sc3nztDuJKOTHGpyhGTmgDyHt9eRRSscszAfeJP19/Xn3yaSgD9hP8Agz6/5OO+MX/YtWf/AKVGv3zBxx/nqa/Az/gz6/5OO+MX/YtWf/pUa/Zr47/Anx38T/Fdrf8Ahf42eNvhvYw2ggk03R9G0S8gnlDyMZy99Y3Egcq6qQrhcRrhQSxMS3MWetbqQOD3HrX85H/BQT/gtT+1v+yJ+2f8R/hrovxwv9S0jwdqr2Frc33hTQTcSoqqwLBLEKTluvAx2r9cvgZ8Bfjl8Z/2cvBfixv2qviPY6t4r8OWGrSovhHwvLbwS3FtHK4VTpoJUMxxlskd6Qcp9jZoLADrX5Zft3/GX9ur/glv4Of4hL408EftDfDfT2VdWbUPCKaXqOlRk/66WOyeMbOi+bGx2FstFtBYeo/8Epv+C9vw7/4KSayng++0u48A/E5YHmXRrm5Fxa6okSkytZzADeyhS5hYK6rkrv2OwA5ep9+ZyKM80yEeWmNu3vgnn8f8ea8c/bi/bk+Hf7AHwUuvHfxE1dbKxiYw2NlAqyX2rXOCVt7eM/ec8ZJIRANzMqgsAk9m3D1oDZ/Hp71+Z/7GvxW/aV/4LK2lx8QrzxVf/s6/AOa4e20PTfC8EMniPxIqMUeU39wjeTGjqy+ZFGm4gqF+UOfpCX/gmDpkWlKun/Gn9pjTNTAZhqS/E3UbqQsTwTBcGW279DDjk8HrQB9PeYuPvL37+nWnZzX5g/Gn/gon8bv+CN3xr8P6H+0DMfjF8EvF0/2bSPH2naZHY63pUijBt72CPFvM6rhsKFaRd8iszK0Sfo18JPit4b+Nvw20fxZ4S1mx17w3r1ut3p9/aSb4biNuAQeucgghsMGDBgGBAAOkJ2jJo3CuH+Onw58RfFLwxaWPhf4geIPhzfw3iXEmqaPY2F5NPEEdWt2S9t54gjMytuVA+YlAYAkH8kf+C6P7Z37TH/BK7xP8OdP8H/tCeJ/EMfjO1v57lta8K+HGaJoHgVNph09Bz5hySOvtgAGlc/abdmjdzX5Wf8ERfi7+0P8A8FPf2VfEPj7xb+0l440DUNJ8WXOgQ2+keF/DIhaGO0s5w7ebpjksWuXHBA2qv1r3L9oD9lX9s3wboV1rHwu/ajg8XajZxM8Xh7xf4H0W2hv2BDALd2sEZjfC7QGTaSxyydaB8p9wBwQvI+bp70u7ivxH/ZS/4OnfE/gf4tyeBP2mvh/Z6HNpt6+lanrWhQTW91pEyNsk+1WUhcthlJfyXVlA+VHOAf2p0LV7XxHo9pqOn3UN5Y30ST21zDIJIp4nAKujKcMrAqQRgEEGgHFovFwO4pc4r8hf20/2n/20PiT/AMFk/EnwD/Z48eW/h/QNM0vT9Tna90PTLi00S2e1geaeaeW1klw0kgVVG8ltoGK+tPht+xX+1Pb6XC3i39s7XL26ba0sejfDbw/axpzkqrywSFs92I5OeB0oJPsbNGa/Dn/guF/wUC/ag/4JfftAeE/CPhD9oLxF4gtPEHh46zLNrPhTw75scv2maIIhj09FC7Y88gnJ6+n1D/wSi1L9oP8A4KE/sKeH/ifrn7T3jfQtc1y7vrdrew8I+Gms4hBdSQqQr6cXyVQZ+cD26khXKfpLu/woB3fzr8/f2mP2QP27PD3he81L4W/tcWniXULeJpI9F17wDoentclediXMds67m4UB0VATlnCk4x/+DeT9tP40fti/Db4rH42+ILrWvE3g3xJFpKxT6TZ6fNprCJjLC6QRRDcsiup3KWBUjPQAFY/RonH5ZoZgvXjjPNZPjTxZpfgLwpqWua5qFppOj6LbyX17e3MixQ2cMYLvI7sQFVUBJJ4Az16V+ZOif8FZfiv/AMFWP2otU+Ff7Jq2PgvwH4bXf4i+KOs6Z9tlhhLFFe0tZAE3SNu8pJwXlCliIQr4BH6mFsCjdg/Svl3Qv+CYlv8A2aW8QfHH9pLxJq0ifPfr8Rr/AEtVcn5mS3snhhAznarK+F2g7sZPhv7YOl/tLf8ABLPwXdfFD4c+Ota+Pnww8OqbnxH4P8bLHcaxp1moJku7TUYUSZlRQN6yB9igyFXAbaAfooDu6UV4B/wTw/4KMfDn/gpF8F18WeBbySG8s2SDW9Guii32i3DLnZKqnDI2GKSr8kgU4wVZV9/Vtw4/SgAooooAKKKKACiiigD+dX/g7m/5SP8Agn/smtj/AOnTVa/LGv1O/wCDub/lI/4J/wCya2P/AKdNVr8sa0RtE/br/gzc+9+0Z/3LP/uWr77/AOC+/wDyiD+Nn/YLtP8A0vta+BP+DNz737Rn/cs/+5avvv8A4L7/APKIP42f9gu0/wDS+1qJbmZ/KUKKBRVm62Pt7/g3nbZ/wUy0L38N+IAw/vD+y7hufxWviHG3jjPGcetfbn/BvX/ykx0P/sWfEP8A6armviR/vn60CEooooA/YT/gz6/5OO+MX/YtWf8A6VGv3z6Afj/OvwM/4M+v+TjvjF/2LVn/AOlRr98+w/H+dT1MZH8l/wDwW3/5Sv8Ax0/7GOT/ANAir+n39hb/AJMk+Dv/AGJGi/8ApBDX8wX/AAW4OP8Agq98dP8AsZJP/QIq/p9/YY+T9iX4PZ42+CNFznt/oENOWxU+h3Xj/wAFab8SPB2reH9as49Q0fXrKbTb+2kAMdzbzI0csbA8FWRiD3wT61/Hb4S8b6t+xr+1xaa7od1N/a3w18U+fbzoxBmNndHAP95XCbWH8Qcg9a/r0/aP+Pnhv9l/4G+KPiF4svksfD/hPT5L+7lJG5wo+WNAfvSSNtRFHLM6gZJAr+U39hL9lXxJ/wAFM/29tL0CzsJZrXxFrcmteJ7qJCYNL04TmW5mZgMKQpZFyQGkkRRyQKURR2P64r6+g0uwmuLiaG1t7dGklkkcKkcY5LFjwABySeBX8t/7dH7WPiP/AILZf8FRPD2h2WoXdr4T1jxJbeEvB9mxJi06yluVga8KMcebKD5znkgbBx5Yz+9f/Bbn4w3nwI/4JU/GvX9PkmhvJNDGkxvGcNH9uuYbAsp7EC6JHoR7V+A//BvN4Nj8bf8ABXv4PwSxNJb6fPqOouqEfK0GmXkkRJPUeaEPHIJ9qOgo7H9Qvwr+Hej/AAh+HGh+E/DtjHpug+GbGHS9OtYxhLe3hjWONR7BVHX9etdBTU+76+9OqST51/4KvfsoWX7Z37AvxI8E3FpFdahLpMupaKXXPk6lagz2xHBI3SII2x1SRxznB/Gr/g2J/wCCl2ofBD9oWP4E+KNQebwP8RJmGirPIZF0jVyvyKpJP7u4wYyv/PXyiOGY1/Q3Mu87W+6wwQVyCO4P+fWv4yvEmr3n7PP7Ut/faDI8F94F8VTTabICUaGS1vCYz+BRePrQXE/s3hOU7j6nNfhX/wAHin/JRvgP/wBg3Wf/AEdZV+4XgfxPb+NvBuk61aHda6vZxXsRx1SRA6/oRX4e/wDB4p/yUb4D/wDYN1n/ANHWVVEUdz6H/wCDRf8A5RveNP8AspN9/wCmvSq/UyVtnzZA45HryO/tzX5Zf8Gi5/41v+NP+yk33/pr0qvvX9qf9uH4T/sZeELjW/iR460HwzbwRl47aW5DX14Rzsht0Jmlbjoqkdc8VQnufztf8HLHw90zwB/wVl8azabDHAviHTtN1a6jVdqtctbKjN/wIx7yOpaQ+tftx/wb++ONQ8ff8EgvgrfapcPcXNvp97pkbu+5vItNRurWBcnk7YYEGe+3Nfjd4u/Yw+Pf/BfH9vrxR8UtD8D6r4N8C+Jr6JbXXtega1sdN02FFgi2bsG5lEaAvHAWDStksgJYf0K/srfs5aJ+yV+zj4N+GvhzzG0fwfpsdhDK6hZLllBMkzgcb5ZC7t05c1Mti57Hi/7K/wAP7OL/AIKe/tU+Kmjja/vI/Cukxybf3kcUWl+Y6qfRmlTPvGtfVgO5c1CkONx2gc8H6dOMe5AGSMAVJHwOhHPAIH9PzqTM/nz/AODvf/k9j4Z/9iP/AO311X6Kf8GzP/KIPwF/2E9Y/wDThPX51/8AB3v/AMnsfDP/ALEf/wBvrqv0U/4Nmf8AlEH4C/7Cesf+nCeq6FdD74JAcfMB7dz3/oa+Rf2Bfh5a/DT9uL9sG0s7f7Laah4x0bVV4wsr3WjW007Af9dnkH1zX11Ku4d/bH+f51CYsBsDbngMPl7EZzjjHIA6YxSRJ+GP/B1D/wAFML+88ZWn7OPhO/e10vTIINU8ZPbzbWupnxJBYsR0REMczAghi8fAKDP3l/wby/slWX7L/wDwTI8D3v2fy/EHxItx4r1e4KgSTfaQDajJydqWoh4JPzM5/ixX8337bvxfvf2gf2xfih40upJmm8SeJ9RvIw7lvKja5fyohnnCRhUA/wBmv6+/gV4Oi+HfwS8H+H4YjBDoOiWWnRxFdpjWKBIwuO2Ao4py2Kex1K8jd/e5qDU7CHVbGa1uIYrm3uI2ilhlQPHKjAhlYHhlIyCD1/GrFNkPH60kSfy8+Ividrv/AAQh/wCC0XjIeD/tX/CN+G9d8i50nzONW8P3fl3KWjluCywSRBHxxJCjdAQf6bPhn480n4qfDzQ/FGg3sepaF4ksINT027RiVuraaNZIpBn+8jKfxr+cf/g6h8Hx+GP+Cpz3kcciP4g8IaZqEjFNvmMrTWwKnvxb4z6qR2r9Xv8Ag2q+MN18WP8Agk54Mtr6Zri68G6jqHh9pGzuKRzGaJTn+5FPGgxxtQU5Gkuh97UUUVJmFFFFABRRRQB/Or/wdzf8pH/BP/ZNbH/06arX5Y1+p3/B3N/ykf8ABP8A2TWx/wDTpqtfljWhtE/bv/gzcGD+0Ye3/FNf+5avvr/gvsf+NQfxs/7Bdp/6X2tfmz/wZ8fE+z0T42fGrwfJNGt94i0XTNWhRvvFLKeeJsev/H8v5V+of/BazwTP8Rf+CVPxy061jnmmh8My6lti+9ttXjum/ALEfwzUS3I6n8loooP3R+PP/wBfv9aBypb+EDcT6D1qzZbH27/wb1DP/BTHQ/fw14hA9/8AiVXNfEbHJz2PT3r7Z/4ILTf8Ir+154x8cTfLY/DX4aeJvEd27HbEqpZmAb/UFpgAB3PuK+JpD82dwbODnGM56cfiKBCUUZ5/HFB4OPTrQB+wn/Bn1/ycd8Yv+xas/wD0qNfvn0A/H+dfgZ/wZ9f8nHfGL/sWrP8A9KjX7554H4/zqepjI/kv/wCC3H/KV/46fNtx4jlII6jEcf8API6Y4zz0x+9X7G/wH/aS8Pfse/DVvCHxy8F3mk33hPS5rO08VfD/AO1XWmRvZRMsKXNne2yyLGCEVpIixVRuZzyfwV/4Lb/8pX/jp/2Mcn/oEVf0+/sLf8mSfB3/ALEjRf8A0ghokVPY+O/jv/wQz8aft1+JrK8/aK/aU8XeONEsZBNa+GvDGg2/h3S7R8YJCtJOHbaXXzHHmhWIDDivrz9k39h/4Y/sPfD4eGvhl4TsPDenzMst3LGDLeajKucS3E0hLysNzbdzYUHCgAAD1yipZnzHxH/wcPeErjxf/wAEfPi7DbwySXFlFpl9sRjysOq2byE+oCK7c/3QTX4p/wDBtfrEenf8FhvhnDL5m/ULPWLeM9gw0y5lGf8AgMZFf0r/ALQfwa0z9oj4HeLvAetK39k+MNHu9HumHWNJ4WiLD/aXduHoVFfy2fsNwa1/wTp/4LFfD3S/G0H9j6p4H8cQ6HrAfKrBHMxtZJlJxmN4p2kVuhQqRwwJfQ0if1iA8d6Kahxnnv8A5/w/CnZ/TrSMxkhww/ziv4yv2rNebxT+0/8AEjUmeBjqXijU7gtDjy/mupCdmONvzZGO231Ff1/ftM/Guw/Zy/Z98b+PNSdFs/Buh3msSKW2mTyIWkCD3ZgqgdywHcV/Lj/wRm/Y01L9uz/goh4L0S4ha80HRb5fEvie4dS8ZsraQO6Pkf8ALaTy4RnvPnopoNIn9T3wM8P3PhL4KeENJvV23ul6LZ2lwMYxJHAiuPwYGvxT/wCDxT/ko3wH/wCwbrP/AKOsq/dRN3O4Y5r8K/8Ag8U/5KN8B/8AsG6z/wCjrKqiTT3Ow/4Njf2H/hT+0v8AsEeLtc8deCtN8SatbePLywiuLqSUbYF07TZFj2q6qQGkc8j+Kvff24/+Df34awfDTXfHX7PdjrXwn+MHh+3k1TSbjQtWuxDqk8YD/ZpImkIAk2lAYyMFlyHUbTzP/Bov/wAo3vGn/ZSb7/016VX6myPtH4YAJ61QSPwG/wCCQ3/Bx58Tk+PnhT4c/HTVLXxb4V8UX8OlReIJ7eO31LR7iUiOFpZIyiTW/mFRIZAXVX3bzsKN++9sMQrwy+xOSPr2/Liv4zf2qPA7fB/9qf4keGod9vJ4X8V6lpseDsMRgupoxg/wsMce/wBK/r+/Zm+JP/C5P2cfAHi4yLM3inw3p2sF1+6/2i1jmyPrvqZBI7iiiipJP58f+Dvf/k9j4Z/9iP8A+311X6Kf8GzP/KIPwF/2E9Y/9OE9fnX/AMHe/wDyex8M/wDsR/8A2+uq/RT/AINmf+UQfgL/ALCesf8ApwnquhXQ++qR84/EUtMl3fwjPBP/ANb8fX2pIk/i0+OPh268KfGvxhpd5G0d5puu3lpMrDaUkS4dCCD0O4Yx6nFf2geGNaj8SeG9P1KJdseoW8dwo9Aygj9DX8yf/Bxr+xPe/so/8FFNe8SQWe3wp8WXk8TadOkXym6dv9OiJPHmLMxk4/huY/Sv3/8A+CXPxqtf2gf+CdnwX8VW1wtw2oeErCC5dcbTdW8S21yBz/DcRSL+FORpLoe901jhun1PrwacDkU1+D/n/Pc1Jmfzif8AB2Vrq61/wUw0C1Xy1bSPAWnWZCuCSz3t/KN3ocS8D05r9G/+DVrw7daJ/wAEr47mePZDq/i7VLu1P9+ICCHPv88Lj8K/IX/guZ4/uv2tP+Cx/wARNN8KxXGuTQ6paeD9LtbX97JcXMEMVrJDGFydxuxOBjnkAc1/Rv8A8E9v2Wof2Kv2Lfh18MY2ikuPCukRw30kf3Jr2QtNdSD2aeSVh7Gq6Gj+E9loooqTMKKKKACiiigD+dX/AIO5v+Uj/gn/ALJrY/8Ap01Wvyxr9Tv+Dub/AJSP+Cf+ya2P/p01Wvyx6VojaOx6z+w/+2D4n/YQ/ab8MfE7wm0cmoaDPi5s5WIh1K0kG2e2k4PyyR7l3YYo21wAVBP9Sn7HX7dnwe/4Kh/Am8uPCOqWer2uqWMlrrvhq+dI9RsEkUxPDcwbiQjKzAOuY26huoH8iVang3xprHw88QW+seH9W1PQtWs3ElvfafdSWtzbsO6PGysp+hoCUbo+xP8AgpF/wQ9+Mv7Efxk1iPRfB/ibxx8Obi6km0XxBpFi99/o+SypdrErPDMM7WLAK7Akda8J+E//AAT5+OXx18TRaX4W+FPjzUruRwTK+jTW9tbkgHdLNMqwxDplpHRcDkngV6J4S/4LZ/tW+CrBbW1+OXja4t1TYPt88d+5B/250kcnnqxz+lef/HP/AIKI/Hb9pTRpNL8c/Frx54j0ubIk0+51iUWMue7W6FYmx2yAaAi+h7V8b/FPhL/gnt+yR4i+CPg/xNo/jX4rfE6W3PxH17Rbn7Vpeh2EDGWHQ7S4HyzSGXa9zJH+7yojw2018c6Qlrcatax3txJb2bTKssqKWaOHOXYL6KoyV6sSvQDAq53HP4AnvjjP6UZ+XrjnIz/e5we+OCf4SDnmgb2P7Bvhz+xl8EdF/Zc03wPpPgfwRefDVtLjEcT2kN1a31s0YYXDSsD5rMpD+cxyxO7NfyV/tF+GPDngn9oLx1o3g6+/tPwjpPiHULPQ7vdu+1WMdzItvLuyc74gjdvvY7Vu6L+2r8XtA+DbfDux+KHjyx8BzRPbPoUeu3S2PlOu1ovKVgBGVLBowNh3HKnivMDxj5duAABwcAcDkcdvwHHAFAon7Cf8GfX/ACcd8Yv+xas//So1+8WreLtJ0G7S3vtU06znZd4jnuUjYqWIBwxBwSCM+xr8Hf8Agz74/aN+MZ/6lqz/APSo1+13xe/Y/wDhL+0F4jt9Y8efC34deN9YtbYWcN94g8N2ep3EMCu7rErzRswQM7sFBwC7HHJqHuZyP5b/APgtRfwap/wVT+OFxazQ3FvL4ikZJYnDo48uM5BHBHB/Kv6a/wBhn4gaDH+xh8Hbdtb0hbgeC9GjMRvI94b7DCNuM5znjHrVf/h2V+ziB/yb98EuTn/kR9M+g/5YfXr61Pp3/BN79nnQtRgvLL4C/Bm2vbWRJoLiHwRpkcsUiEFGVlhBVlwMEEYwOaQcx7YDkfpRTIV2hjtwWbcfU/X+X4U+gka38q/Nn/gu1/wQ/h/4KAeHf+FifDmK3sfjFolt5PkMyw2/imBc4gkZsJHOuTslY7T918jayfpRTJV3N/s4we+fwoGj4U/4I6/8FPIf2i/hvY/Cn4ryTeDf2hvAsX9lazoGuK1nfawIVCrdxpJt812j2mRVyQwLYCOpr7odljT5tihBkA44x6fWvM/2hP2LPhT+1jYxw/Ef4f8AhnxZJbjbb3V7Zob21A7RXKhZovXKODz1rzS7/wCCQXwG1LTobHUPDfi7VtNh4Gm3/j/xFeafjpg2s188LAAD5ShHtQPQ+IP+C2X7ZXiL/gofrUH7Jv7MdvN4/wBW1O6Sbxxq2lvv0/TYopN0drJdZ8oL5iF5Gb5cxxoNxZ1X7I/4JJf8EsPDX/BL34CyaLayQ6z458RFLrxNryR4F5KoISGHIBWCMMwQNySzu2MgD6C+DHwA8Efs7eEY9A8B+EfDvg/Rofu2mj6dFaRt7sFUbjxyScmuyHGaBX6FPVddsdAt1lvry1sYmfYr3EyxqzHJABY+xwPQe1fhR/wd9eJNO8SfEP4GNp2oWWoLDpuseYbadZQmZbMjO0nGcHr6Gv21+MPwM8G/tAaHa6P478HeFPG2iWlyL6Kx1/SINTt4rhUdFlSOZWRZAruofAIDsP4jjzl/+CZP7OLMP+Mffgj8vAH/AAgulng4z1h4zgZxnOPycRxdj4T/AODS3xdpOgf8E6PGkF9qmn2Ux+I96wjnuUjbB0zSwDhiDyQR9QfSv1Ysr+31izjurO4hureQfJJC4dH5xkMODgg/rXiv/Ds/9nDcP+MfPgi23dyfAumd+v8Ayx4yc+tesfD74d+H/hP4OsfD3hbQtH8NaBpiGOz03SrKOzs7Rck7Y4owEQZJOAByabehMpH8yP8Awca/sqaj+zj/AMFOPGWrGxkg8O/Ewx+I9Jutp8ueSZNt4ucY8wXSyNt6hXU9GGf3F/4Ig/tKeHfi5/wSh+E+qLrmnD/hEtAi0HVTNdIp057Im2Amyf3eUiRl3YyrqRwRX0r8ZfgR4L/aE8Ltofjrwn4c8YaPneLPWdMhvoUb+8qyKdr+jDkYz6V434W/4JFfsy+EdabUrT4FfDf7U8omYz6NHdKJASdyrKGGQxJBAGOoqSubSx9JBtw4qlrHiTT/AA6sbahf2VisudhuJ1i34643EZxVuFdi9Bu749a4z4yfs3/Dv9oi20+H4geAfBfjqHSZGlso/EOiW2prZuwAZoxMj7GIABK4yBTRJ+DX/B3Br1j4g/bT+Gz6feWl8kfgkK7W8yyBT9uuTg7ScHkfmK/Qz/g2r8caLov/AASO8B295rGl2k66nq+Y5ruONxm/nI4JzyOa+mk/4Jl/s4hV/wCMe/gj8uCB/wAILpagHOR0hP179Kd/w7M/Zw8xs/s+/BNtww2fAul/Nznn9x65PHdumabZXNpY9tsr6HUrSO4t5ori3mQSRyRuGSRSMggjgggggj1qWs3wd4Q0nwB4WsNE0PS9P0XR9LhW3s7Gxt0t7a1iUYVI40AVVA7AAe1aVSSeA/8ABSD/AIJ8eD/+Ck37N2ofD/xYptZt32zRdWiiWS40W9VSEnUNjchDFXjJG9GIBVgrD86/+CS3x58X/wDBF/4t61+zL+0pGvhrwnr2pSaj4J8ZTn/iSXE0hxLGLsgKscmFkG/aY3L+YFLiv2SrA+JXwt8N/GTwldeH/Fvh/R/E+hXy4uNP1Szju7WbHTMcgKkj6UAa2majb6lZx3FvNHNDcKskUiOrLIhA2spBOQQQR/vCvkL/AIK1f8FTvD/7CHwmu9D8O3EXib41+KIv7P8AC3hXT83N+bmb5UuZYk3MsSfMwBXMrKEUjJZeqtP+CQHwC0awubXR/CviTw3pt0CH03QfHOv6PY4y2UFva3scSqdx4CgdOMAV3X7Pn7Avwb/ZTvZr7wD8OfDPh/Vrpi0+qpbfaNTuPUPdzb52HJ+8/wDOgD89v+CDv/BDXXP2evFi/Hf462v2j4j3wa50LRrqT7RNoTShjLd3ROR9scNhVDN5asSw8w4i/WiDOzkbeelLGML+JP4nk06gdwooooEFFFFABRRQTigD8pf+C5//AAQv+LX/AAU3/a18O+PPAfiL4d6To+k+EbbQJodfvryC5aeO8vZ2ZVhtZV2bblACWByG4AAJ+MP+IRf9o4/8zt8Ef/Bvqn/yvr+idpVQ/MwH40LMrdGU/jRzWNOZ2P52P+IRf9o7/odvgj/4N9U/+V9H/EIv+0d/0O3wR/8ABvqn/wAr6/onMqg/eFAlU/xD86rmb2F7x/Ox/wAQi/7R3/Q7fBH/AMG+qf8Ayvo/4hF/2jv+h2+CP/g31T/5X1/RP5q5+8Pzo81c/eHp1pc4rs/nY/4hF/2jv+h2+CP/AIN9U/8AlfR/xCL/ALR3/Q7fBH/wb6p/8r6/opJwM9qb5q7tu5d3XGafMw5mfzsf8Qi/7R3/AEO3wR/8G+qf/K+j/iEX/aO/6Hb4I/8Ag31T/wCV9f0Ubge9IJFJPzDjrz0qXNbMLs/Mf/ghF/wRd+KH/BLv4s+PNe8fa54B1iz8VaRBp9qvh68u55onSYuS/nW0IC4P8JJzX6cQrtX69f5U7cM0Z5oJvcKKTcMdRS5oAKKNwHfvikDgnqPWgBaKQuB3HFBdQfvD86AFoppkUH7y9M9e1Ozk0AFFIzhepA+tLnmgAoozQGzQAUUZpokU/wAS/nQA6ikDgjqKUHNABRQTigtj8Bk0AFFIHBJGRx19qUnFABRTRIrDhlPOOvfOP58U6gAooDAjNG7igAopNwz1FLuoAKKNwx1oBzQAUUUUAFFFFABTJOv8XT0p9NkOD9eKAZ+WP/BXHUvGnjb/AIKe/C/4e+G/H3ifwXZ+LdC060MunX08cUMkt/fIZTFHIgZvlUE5U4UDPArtv+HKPxXDNu/ax8eN3z9lvCT+eoE/rXl3/BYL4qWPwP8A+Ct3wh8YatBeXGmeGdC0zULiGzRWmkSPUr5iEDMoJ4PUgc17Mn/Bxj8FvLj/AOKV+KQDAf8AMOsM5PPa89M9Pevj4/UniqyxM9eba77H67V/tiGVYL+y6aadN81oxd3zPe6fQ5T9tn4K+Of2Cv8Agl54gsLn4r+KvF2vXXi+1votceeezuoIHWKP7MrGeRtuYi33sEyH5e5wv2d/+CV3xY+PnwH8JeNh+1B490v/AISbSrfUfsXl3k32bzIwxTd9uGcEnoqj2Feu/wDBajxtb/Ej/gl9b+IrGO6hs9evdKv4Y5wFkWOX94A4UnBAbkAnB7143+yr/wAF3/h38BP2bfA/gvUPB/ja6vvDOi2unTzWyWvlSvHEqll3SqcHGRkd6K0cJHHcteTUFFcqu7fgXl/9rVslWIy6KdZ1Zc+kdrKy1Vkr9EfRH7IX/BNnx7+zF8XV8WeIPj14q8eWMNlNatpF9bzxwuZMYfc91IMqVB+6fw615P8A8G8fxT8UfEzwn8TpPE3iLXfEElld2CwNqV9JctAGScsF3sxAJUcA4+lfVX7E37dXh79vL4Y614i8PaTrWkWuj37abJFqaxiR3EUchYbHYbcSDvnIPHTPxv8A8G1x/wCKT+LW4/8AL9p4/KO4ruUKcMTQeHvyS5nu7beep4NSWKrZfj5ZhFe0i6a2St7z7Kx+nkaEBDu54DHrnjH9a/NzxH8VPE0H/BwlovhpfEWvR+G5LYs2ki9kNkzHRJpMmENs+8N24jOQvtX6TKw+nSvy68Uvt/4ORtA6f8ep69/+JDOD/OurNZNqly/zpfieVwnTjUlirpO1Go9elluUf+CnTeNvib/wVa8E/Dfw78RPFXgmy8SaNaRebp99MsVu7PdZfyUkjDM2wDrngV13iT/gj38ePBfh+81Dwv8AtTeMtS1qzhd7S1uTe2cUzgZ2vJ9skGGIAyYyPUYrmf28fE+l+CP+C6vwn1TWtQsdJ0uy03T3uLy9nWC3gXfeDLuxCqMnue9fb3xl/wCCgnwb+EHgq81rUPiJ4Tult4maK10/U4by7u2HISKKNiWY8c4wOpwMmvLw9LDyqV3WlytSdnfyPqsVmGY4bB4CGXUrqdNOS5FLmd7auz/M8D/4I6ft6eMf2nbLxd4F+I373xp4IkTN08Swz3cBdo3EyqAvmROuCQAGEi8ZBr7nVGZOR7Eeh/rX5jf8EGfAGsfEX4w/Fz42X2nvp+m+K7qW3sVy2y4ea4a6m2bgMquYQD6s46giv09jOV/lXr5LUqTwsXU1s3Z90fJcaYehRzWpTw6SWjaWyk0rr7z8Ovjvqv7Sn7Yv/Bcv4xfBH4b/ALQPiz4baXoVsuq2cS6pdLZ2yJa2WY1iiIAy85OBnODz6euL/wAEcv25t+7/AIbc1tuRn/S9R7dernHftXzp8R/+CgHg7/gm7/wcifHT4g+ONL8T6to82nf2SkGhQQz3Xmy2mnOGKzTQptAhIzu/ir7D+Ff/AAdOfs//ABh+KfhjwlpXg34xwan4q1W10i1lutJ05IIpriVIozIy37ELl8kqrcc1672PmDy3/gvl8X/jR+wZ+wL+z3pGl/FTxVb+N4Zm0nxD4g0rUZYJtdlis1LyOchny4LDcRgkk46j1D/g34/4Kg+Iv2lvD/iL4I/GC+uP+FzfDeSfdNqPN3rdms2xzJ/emt3IjbGdyNE2WIdj5b/wd/EN+zX8Htx+X/hKLsjIznNsP05P4ZHcVk/8Fr/2QPE37LXif4a/ts/BuFrDxN4Qi08eL4LdflnjEKxRXbqmC0bJi2mBPMbxnHEjCR9D9avj/q914e+AvjTULGeW1vLLQb64t542IkidYJGV1K8hgwBz61+ff/BsR+0t4+/af/ZE+IGsfEbxh4h8Zajpfi1rS1utYvnupreEWVu20M5O1QxYgA/xE4719TfDT9r/AML/ALdn/BNfWPiZ4TmzY+IPCWoNPaM+6bTbpbRxNbSf7SPke4KsPlYV+Rn/AASh+LOrfBD/AIN5P2tPEWiSeTqceqzWMUoYq0H2qzsrUyIRyHQTFgfUCgmOx73+1j/wWV+NX7dn7Vl98BP2KrC3kbT2li1Xxw0Ub5VH2SzxSSq0NvaJkqJmDySsy+UASpfT0f8A4IeftneIdLW+1z9ujx1putXQ3z2mmavrMtjE/cI32mE49hGg9h0r0v8A4Ndv2b9F+Ff/AATRsfHUNtE2vfFDVL6+vbnaDL5Fpcy2UMBY9VRoJpB2zOx9K/SeFtyk+/8A+ugZ+fn/AATS/Zd/bS/Zm/aUvND+MfxX0n4mfB2PSZZ7a+lk+2ahcXgdVhi3zKtzEdpeRizyx4UAEMxI+KdN/wCGpP2+f+Ctf7Q3wv8Ah/8AtGeLvh3pvgXVr+9toH1O7NpFbpdrCII44mG0AyDGegAHGMD92fMUv95evr7V/Pt8Hv8AgpX4H/4Jj/8ABcb9qnxb480jxfrOna9qmp6Tbw+Hra3uJ0lOoxy7nWeeFQu2M8hieenSgZ9RL/wRw/bnHT9tvWmCkgZvNS6c9fnwfyrM/wCDiP45/GT9kH9nj9m3RvB/xJ8UaT4qvFuNH1rUtK1KW0k1y6itrOPzXbIJzIZGBY8eYTzXr/7Of/Bzd8Bf2mfjt4T+H+geEvi5Z614z1SDSrOa90rTo7WKaZgitIyXzsEBYZIViM9OleL/APB17uC/szlgFP8Awkt/khuh/wBBzjj1P3uowSBzQB7x/wAEA/8Agptqv7ZfwZ1X4a/EqeaP4zfCdmsdWS8XyrrU7WOXyVuHQ8+bHIvkyjkhwrNgyYr6s/4KCeLdT8AfsG/G7xBot7dabrOh+ANd1DT723cxzWdxFp1xJFKjDkMrKCCOQQK/Mn/gtp+zT4s/4Ju/th+F/wBtv4O2TeTHfRQeOdLi/d20skgEJkkCjiG7TELtj5JvLfl3BH3R+0X+0p4X/bA/4Iv/ABb+I3g28+2aD4q+FfiK4gDACW3kGmXSS28gHAkikV42AyNyHBIwSC8z5l/4I6/tRfEb4w/8EQfi5438VeNPEniHxhop8Rix1q/vpJry28jTI5ItkrEsoSTLDHQnOO9dh/wbFftG+O/2nP2CfFuv/ELxb4g8Za1a+PrywhvdYvHup4rddO011iDsSdoeSRgOOXPHNeKf8ELef+Def45f9zZ/6aIq+VP+CIv/AAXY+Hn/AATD/ZT8Q+AfFvg/xr4g1LV/Ftzr8dxo62xgSKS0s4Ah8yVG3hrZycDGGXnrQB/Rc3J4PYgc9/8AIr8uP2p/2oviJ4Z/4OTPgv8ADfTfGniSx8A61oENzfaBBfOmn3bmDUiXkiyFZsxx89cIPQVz3/EXj8FXP/JNPioOMfcsepIH/Pf6180fCn/goH4Z/wCClX/Bx38CfiH4T0XXdB0uHT20j7Nq3lfaGeKz1CQuBG7jaVmXGTng8YwTUQjE/fvAI598cdj1GPf+lfzJ/td/8FJPip4+/wCCi3jD9o7wVq3iO4+Gfw/8eadpVklrfSJpc9vH5y20bRbwpW7isLiR8g/6xgT8yV+3n/Bb/wDa5/4Yy/4Ju/ELxJa3P2bXtctR4a0QqSsn2u9zEWRh0eOLzZh7wV8f/sM/8Emz40/4N2fEXg6508f8J18XrCXxvbeZEPON2nlzaWmSMgNFbwA47XMv945Yo7XP1W+GHxC0v4ufDjQvFehXIutF8SadBqlhMpG2S3njWWJ/xUg+3Ir8h/8Agrl8Sfjx8T/+C2ngH4GfCv4yeKfhrY+M/DNrLGLTUJorKGcC+meVo4nBLlbcKTjoFr3L/g2D/azb49f8E9/+EG1S4kfxB8IdTbRpFlO6X7FMTNaMR1AUmaAA9rYGvm//AIKgfHzwn+zB/wAHLHwd8e+OtUbQvCfh/wAK282oXwtprkwI6alGP3cKPK/7yRBhVOBmgFudd8Tv+Cc3/BQf9nL4c614z8M/tZX3jbVPD9q9+ukXEs8zXqRKzsI0uUliaTapxGygP0zng/TH/BHD/gqLqX/BSX9h3xLr2vQWmm/ELwSJbDWf7PUxwXW6AyW95GpJKb1DArniSKTAVdqjzv8Aa4/4Oaf2dfDXwe163+GOua18RPG2pWElro1pZ6FfWcIu5I2EPmvcxwNsDYJEeXYYC85K0/8Ag3u/4J/+MP2M/wBgT4ha94+0280HxJ8TQ9+uk3SNHc2VnBbOkJnQgFJXZ5X2HlUZM4bcAnsUVf8Ag1z/AGoPiJ+0/wDAP4o6h8RPGfiPxneaTr1rbWc+r3j3UlvEbctsUsSQOhwOM575r7E/4KkftYp+xH+wf8RviClwINY03SXtNEHBaTUZ8QW21SPm2SOshA52xuegJr4B/wCDP75v2bvjF/2MlngDt/opFQ/8HJ3xC1P9qr9pf4Bfsm+FbgtfeK9Yg1nV1Ublj86RrW1Mm3kLHH9smcEfdEbdOakD57/4N2v2sfiF8Af2/dD8C/E/VvEzaH8dPDH2rRBrV/JMkjqZZbO5jZyQBIIriEBT87zKoyRiv6DEOQfrzX46/wDByJ+yu37Mvw0/Z8+OHw1s/wCz7r4E6hYeHYnRvngs4Csunbj/AHIpoWTjkm5Ga/Vb9m/416T+0f8AAPwb4+0ORZNK8Y6RbatbY/hWaJXKEdQyklSDggqQeRQTI7aiiigkKKKKACmuMsKdTXFGnUNOp+XP/BSa0jvf+C33wDhmVZYJNP0gOjqGVv8AiZ3vH4jdnPGK/SxfAejfMraPprZHJNumT7fd+tfMX7UH/BOnWvjx/wAFAvhv8ZLTxDptjpvgi3sobiwmt3ea5NvdXE5KMOBlZsc9wa+tSMHb12+vpXkYLCyhWrSqRXvS3+R9ZnmbQq4LBUcNN3hTtJLTXmb/ACPin/gvRZxwf8E9b6FUVYF1mxTywBtVdzAAD246entXtH/BOezil/YS+EzOitJJ4WsHchR8x8hc9h3qr/wUZ/ZD1L9tn9m+68Dabq1not1cXsF2Lq7haWMCNskYXnJFfMvgr/gmb+1N8PvC9hoOiftHxabo+kwLa2dtFZv5cESjCqMjPArnrU6tLHe3VJyTilpbv5ndg62ExWRQwc8QqdSM3J3vqmrLY/QiaJYoJFWPau05Hc/5/rX5g/8ABu/rVt4D8X/GLwJqk0dn4otru2c2crBZZPIa4hn2qeTskIDcfLvTONwz9Hfsrfsf/tDfCz406frPxA+OB8beF7eKZbnSBbFPtLNGyockcbWIb3xXKftqf8Egrn4ofGb/AIWp8IPFknw8+Ie8zz8yJZ3s/TzPMj/eQswyHwrqwxleu4xMa8/Z4mnTfNBvRvowy36hQhiMrxGITjWUWqiT5VKLuk1vY+4zLzx268dK/LPw/qdt8Xf+Di5tQ0GZb+x8N20yX08J3xo0ejvbOAw4+WaZEb0f5Tg8V0Gpfspft9fEfTZPDus/Frw3pukTKkM13BPHFI8ZQhtskFqs5ZRxkspZiDnjcPpb/gnh/wAE0fC/7BXhq8uILqTxB4x1tdmo61LD5bNHncIY1ySsYbkliWY8k9AFUnXxlWCVNwjFptvTYvD0sDk+HrzliI1KlSDhFQu0r7tuy6dD43/4KR/CjRfjj/wWt+GvhTxDbSXWj6/o9ja3ccchiZ133ZwHUhh09cV9PeHP+CF37O/h7XlvH8M6pqSodyW97qs7whu2QrKze4ZiCODmrvxu/wCCdutfFb/goz4J+Nlr4g0610zwrBbQy6dJbuZ5zE05JDDgZEoH4GvrdFIGKrC5XH21WpiKad5XXoTm3FFZYLB4fL6zio07SSutW3f8DL8FeC9J+H3hmz0jRNNs9J0uxjEVvZ2kKww26j+FEX5VHfA9a1gcikHHrSMpLj6Hn06V7kYpL3dPI+ElOUpc0nc/HP8AZZ0Gz8Q/8HWPx6t760t7yEeHJZBDPCsqH/R9LG7DcAjPBx/Ea/XCL4eaDaTRyxaHo8ckLLKjLZR7kYHIIIXIK9RjvX5n/tLf8EPvjr4v/wCCh/xA+PXwn+OWkfDbUPGgjhjWOyma5t4Ps9vE6MwBU5aBWz/hTv8Ah1l+3t5i/wDGaRwpGf8AQ5ufw24qijhP+DwAZ/Zr+DvH/MzXeP8AwFr9VtE8J6d4++BNhoOsWNtqmj61oUVjfWlwm+G5glgCSRuvdWVmBHQjg4zXwr/wUN/4I3/E79v39ir4O/D7X/ihpN542+H8z3Ot+Ir+0lkXW5WjKFlUD5WPqfSv0K8IaM/h3wrpunyOsj2NrFbs6ggOUQLn8cUAz8FvDmta5/wQD/bc+J3wR8TXV9N8CfjXpF7L4dvpTvS3llgljtZy3/PRJD9muDwMbJTgCPd13/BBD9m9v2vP+CKP7S3w3txGmoeLNZubew3ttjjvF060ltd2eAonjTJ7jk1+kX/BXf8A4Jn6X/wU8/ZcuPCf2iy0jxfo0v8AaHhrV7mItHZXP3Xjk2gv5Ese5XVQefLfBMaiuO/4Ijf8Ey/Fn/BMD9nzxb4Q8Wa5oHiC88ReIW1mKTSDM0UUZtoYtreciEsWjYn1BHI4ABnyJ/wbL/t+aX8MNC1v9lf4iy/8Ir448O67dy6Da6kn2Z7kvJ/pVgwOMXUc6yME+84kYAZjav2PAK4x8xB6e3Tr7DP418Lf8FPv+CCvw0/4KNa9J4wtb66+HvxN8tYzr2nxefBqO0AIbu3LL5joFCrKjRyYwGLqqgfNvhn/AIJZf8FJPhJph0Dwr+1V4TvPD8cfkwNrGp3t1PHGAQoBnsLhk2g8KsmBgDjauWhGZ4V8S6nJ/wAHenibS/7Tvjp0enRhbXz3a3Rj4Vt3/wBXnb97LcD7xz1p3/BJjw/p/iD/AIODv2wob6xs76GN9VcJcQrNsb+1ofmw2R/Ew4HRq9h/4J5f8EN/iN8Af25Y/wBob4xfGj/hYnjxYLiCaOKxkk+1+bai13PcSspwkYVVVYlUKgA4rjfiF/wQm/aE0f8Abd+KPxg+Ev7QGj/Dm4+JGq3d46W9jObhLaafzhA5wVOG2nI7imxn6j23gPRbCZJodF0mGaEhleO0jRoj1yp25GDyK/Jb/g7Dyyfs0ev/AAkuoZwc4/48RXb/APDrH9vfG5v21D3J/wBAlO36Dbz+Nd//AMFA/wDgj18Rv28PgR+z7oOsfErSJvFnwm3Ta9rV/ZyN/bs7Jbh5EVR8pLQk5PrUgfdHxc+E3h/48fDbXPCHirTbfWvDfiSxl0/ULOZcpPFIpB5/hI7MPmU4IIIzX4DwfEXxN/wRS1v9pj9k34gX11qHw1+JfgXX7nwVqtxhUa4n0y4S2lVV4Hn7fs0qL0nhQjIJJ/oejHHvXxz/AMFmP+CUWm/8FRfgLY6bYXOn6D8QfDFz9o8P6zdRloUVyontp9oLGGRVB4BIdEI75cRHyF/wQs/5V5vjhx28V49x/ZEW0/8AfOK6X/g0w8H6Tr//AATn8azX+laffTL8SL5FkuLZJGC/2ZpZABYZxyT+Ne8f8E5P+CWXiz9jn/gmR8QPgb4g8Q+HtQ1zxk2sCHUdPEz2tut9Zx2ylg6I52spYjBwMc11n/BFz/gm7rf/AAS7/Zb17wBr3iTS/FF5rHiq58QJdWEMkUUcctpZwCMh+dwNsTxx8wpsGfTx+GPhw/8AMv6IvQk/YIj059PrX5IftXaPZaD/AMHVfwDt7G1tbC2PhuFtkEaxoSbbVuyjHOBzX7GMeR9Rz+Ir4k+OP/BK7xB8Vf8AgsL8Of2mbfxVpNrongnSk0+fRZbWRru6IjvE3K4O1QPtKHB5Ow+tEQifFP8AwcNa9rv7f/8AwUV+Cv7Jfgu8jjuoj9u1VyvmRWlzdIzeZIgO4i3sYpZiByUnOPWu+0j/AIIs/tt6Do9rp+n/ALaOqWdjZxJBbW0FxqMcNtEoCoqANtVVXAC4xwOwr379jj/gkN4k+C//AAU7+JX7SnxB8Y6P4q1XxaLxdGsLK0kjGjrPKgXLSEkmO2jWFcdmf1r70jGCfrkUPYZ+DP8AwTS8KeL/APgjf/wXOX4P/EHXrfWrP4zaUkR1ePdFa6lcT7prW5VHwd32pLi1weryuR2Felf8FAfh54f+Kn/B0N8EfDvijQ9H8SeH9U8MW8V3pWqWcd5Z3irDqjhZIpQY3AYK2GB5XIyQK+r/APgsL/wSE1r/AIKI+Pfhf428C+L9N8B+OvhvcvJFqN3bPMsqCSOeAjZyHimjLKTxiRx3q58V/wDgld4q+Kf/AAVw+GX7S0virQbXT/BOiw6fe6MlvMZryVYbyNij42qm66BAPPynNKIrnx5/wV//AGOLr/glD+1B4B/a++AfhXS9D8PaHdxab4q8N6TZJa6fEHXyQywRqEjhuo8wuQAElWJ/vyHH6kfB/wDaZ8J/tg/scwfEfwXfLe+H/FGhT3MGcCS3cROskEgBIWWJ1ZHUEgMhwSME938XPhboPxu+GmueD/FGl2+seHfEtlLYajZzrmOeGQbWHqDzkMOVIDDkCviT/glh/wAEoPiV/wAE3YviV4Pm+JWl+LvhX4u+0S6Pp8lrNFeaXdMfLSdiDs/eQ7VmC8F40YcA5fQLnzj/AMGhd/Dp/wCzF8ZLiaaOC3j8RWsjyuwVEQWuSxY8AAEHJ7V8z/AP9n34vf8ABbr/AIKV/Gz46fC34hf8KzXwpqqQaJr83nedDbSJJa2sMHl8qxtICz+hl9WFfe/7E3/BFD4kfsZfsB/HL4U6b8RvDlx4q+LgEFprUVpcRQ6ZDJD9nnLDO/f5LybNvCttNfQn/BIT/gnFH/wTJ/ZLXwLPqVhrniHUtWudX1fUrS3aGK6kdgkWwNlgqQJGMH+PeR1qQufCnxk/4IPftjfGr4Xat4b8T/tZTeMtEv4g82j6pPey22oNGwlijcM5GPMVCScfMoPTNeif8GrP7T9x42/ZM8WfB3XZJo9e+EOsOsUFwQssdjdtI4Xb6pcx3IPYCRB3FfqZnd8209QRkH+X+ea+DP2bv+CQniP9lf8A4K2eOfj34U8XaLa+APiGt5/avhg20gud9yqTyMrAeWMX0fmAnojlaA5j73xt/rRTYl2Jjbt74p1BIUUUUAFFFFABRRRQAUUUUAFFFFABRRRQAUUUUAFFFFABRRRQAUUUUAFFFFABRRRQAUUUUAFFFFABRRRQAUUUUAFFFFABRRRQAUUUUAFFFFABRRRQAUUUUAFFFFABRRRQAUUUUAFFFFABRRRQAUUUUAFFFFABRRRQAUUUUAFFFFABRRRQAUUUUAFFFFABRRRQAUUUUAFFFFABRRRQAUUUUAFFFFABRRRQAUUUUAFFFFABRRRQAUUUUAFFFFAH/9k=;" parent="uiQut5pqw0-m5vwZ60sW-1" vertex="1">
          <mxGeometry x="200.41374012808922" width="120.72636110835235" height="51.68999999999999" as="geometry" />
        </mxCell>
        <mxCell id="uiQut5pqw0-m5vwZ60sW-4" value="" style="group" parent="WIyWlLk6GJQsqaUBKTNV-1" vertex="1" connectable="0">
          <mxGeometry x="790" y="720" width="343.5" height="47.74" as="geometry" />
        </mxCell>
        <mxCell id="uiQut5pqw0-m5vwZ60sW-5" value="" style="shape=image;imageAspect=0;aspect=fixed;verticalLabelPosition=bottom;verticalAlign=top;image=data:image/png,iVBORw0KGgoAAAANSUhEUgAAAY4AAAB/CAMAAADPY9VGAAAAh1BMVEX///8cHBwAAAALCwuRkZF3d3caGhoWFhbx8fHU1NQYGBiAgIDExMS8vLzJyckSEhLn5+eKioq2travr6/h4eE8PDz5+flMTEzZ2dlcXFwPDw+enp5GRkY2NjaoqKjm5uZvb29kZGRRUVEpKSkxMTFfX1+WlpZzc3OhoaEiIiIsLCxBQUFqamoFiuhMAAAQyUlEQVR4nO2d6YKquhKFoaIEUEGERsWpnbX1/Z/vppKQAXHY93Sfw25Zf5QQpnxkqKQSHKdVq1atWrVq9dcrge/Xi5fe3T3B6kcfucnqgOd+s17F8UHvneCdcXw3jW/AMfzRR26yWhyNUoujUWpxNEotjkapxdEotTgapRZHo9TiaJRaHI1Si6NRanE0Si2ORqnF0Si1OBqlFkej1OJolFocjVKLo1FqcTRKLY5GqcXRKLU4GqX7OH7c7e3cur3d6C4OCP7rW3tHtTgapRZHo9TiaJT+BhxZmnzur0k6EZsjpYEIyNNqiFSEQZEVNJARay7jy13/5YM3Hkc+wzYeKQpscl0HuZPrFtiXiOLrEM86tKaht5URj7dXKnf1fuxZnqvpOFKAUN8UYxLk6o7pQsTxVUi4tY/lD9I3w3bS2IHs9kpiD0l+8nmeqOE41mL6CY1JQfk/iHCajrhD9Ypvb0K4LjFHuLZPKKIW++qliLgSQPqDz/NMzcYx5ndHYDc9rucFpiTD4QyXGEwjX8Vb8VcbAt88eCIfDazQYURqn2/GY9P5JP/B53mqRuM48mSHnihY8gm7WcTBE9oLzZgrjsM+ukdcb4vBMztcPHE8tgJzkQ3jm0zz76rJOPqchjtRAbmFw3yNsxocgPXANXbp9iacP6BVpyQS0vSbn+EP1WQcZ1aJe4VZ1Jg46BMcI160jWQBZ50EIbt0Z4QNMTBscTzQgCexZUl8wes4NrHrxZih3OJq7WAh4bhg0Y06u8sqlHAetjjua8oaRvHcChr2+5hZXimsMIQwE2KNCW9Vz5hfTmPKMoMVGTqsYGtx3BVP4Trz+aXcgZUBTEQFBKfKeeEUgVnHM2Ye5PsWx33xdqrdSDV3eZYBPrzBwcwU+lX++TD3CBDjGAmIkIBnDsyOLY57wqojPNfu4qS8bk/rs6jgGKi3n7V37YcRe/AcIA1wiabF8UBo2dmvtZIw8Iihwq3gwIpHDPJiZNI1dklQvFLhmS+S5VmL44Ge4ri9ZR0DC694I/5/UbsylzgyhemDimz4y3H4d/VKRwTHsajdJQora3i9ggMfq2wGYPeH2agtizFs3GJP4qiM+8txXO/6JgyeH8yLEI/W7uJVuevnWpNKVb5lJh2R0P1KNitxYDj2JLK4Avsvx9El987df36wbLve9IOjbvusKg3dvux65BL1ij6RquR5Fsp45uA31OJ4JOzUq3b/CT21O9YcAWsMo/hfogeVFI6ceC5JmEEYX/iOFscjfWLHhVu35xkOPh5FCyWKfV8qujYAT1jhU/WsLY5H4iUOHGr2POskwcqbXtZK6O+o7XvDHj/zkcZCMmhxPBQfSLW6YyOx8Sx3YEVu1jrYKtDjGwaOkWiRyagtjoeKRHt2qQISEEc+yR3RTROZV0MlH7O3ComTssO3xfHkBOLlXaQrP/cnp3M5dpE97rPCSseAyJQQ3SNi4YigIMpDG7sQf/Fo4D/GIcfKKXr2gHApYckcHPbok0C7szIdg8MaQwgP8Tt4WdsLHvsIvXjmO85qdozRDElmIrOk66soAKND9+y53ra3/C8Hy5uNw/kE6Ygjmqsxs65zAO4hwswKadtZIR1hoXtmnTOQQezohTBDKAG7dzJjxPEaHoHf6tjzDTicwRliubSsV8A8U04Gbp2fFd1Kbx67SdaTEcjeWZSTSipNaN0N1uJ4qNGm7FoRxcpDL0TX+Sj/WjikpsrVsOqdONHhv9UL8XtwMABZNBgEqjIwuiJrQuq6KfOa3X5lYOvP+jd/Sn8DjjdSi6NRanE0Si2ORqnF0Si1OBqlFkej1OJolBqPI1t+Xs67fRKhdTYyXd16va7vpOzH6NVIRHjftyMyHXhU+b9v24D93ubrPO+mFcvwoI9Olio58so91Lqt/r9qOI5sCsD92gBgHWBvByGqN4OA73TxR/M4iwgzH0Q0IqMTGDtH8+BPnfTLWFyC7Ussi/xiXS08iJ2+Pis/cecfp5OhZuNYQhEDjNdTlswUeo6fXmPvay70QRmOYbqJjVkHk3Qdk+PIH4J33m63X2dX/sYbdvA+Dj/W+/WGQEyI7HTJx+zMsNuvL3gJ1/RcydIx9Rb8WjuAGDwx8ac/O3v0Iu5hfH4jHDNwYS7i5v0F79vrg/IJWQH36TyB6xmLygwA73wo9jk9Iq41A3RJHIFMvGARF8J7JN8RCgceN09d9t/yJOpAOcSeDz4YLZkmC6pcudfvgyMCs7f7ynEMNA5fJDljRmM9FDsqceTiFsS1BoATRVIoZynnngcTcVbqKpb5hsTWMEjHnEfbhVBSMHB03wfHmZqd3UkVh3OcChzhJdYzmAWOfJLJWxDXEtspKLwyoSPwrHFDltCm64qFw1kTMi1jlTii6bfOe24wjhTol7E52uF7aOIQmgFMGLhybFzg0LdgXkvnDiSD4+Xj2J6KE4BnelfbOHKQWcrA8c1qMI5NXDPjvhaHPwHlKPIijhNPaB+q023n1HQgtnFgTcSPf0scUDf3qRbHiqUudcVb/RiHKqzmsXBer0zjZGczz1/BEQHlDYB3xJFBnf96LY4htnCI8Ml5LXccRPQDVJ2AIzDn/1dwlJmJ4fih5RqbiyOAysIIXAPgfj4oOaNJ4Mi/ZCX8FEeeD/tTZsn5YnfFqM4gNCqsCo4ywy6oWinym3NJo3FsbkMZjlimhGxMCRzMChG+PI9xlJMMYM+LtuMNjhWYq/60OJQCWVDbGkC87nMN5A1KHIwDX6HhCQ5cFsstjpnaXWktTMB0J63BgRhZYTWSN/HNfg7NxbG6afWg7tUdeDkoxk8Lq57vp+C5vjq2YsX1wXTTreAYgkfw9x2rcoeVPrdznx7gcJg12HulKk84N1R0Uz8lxLQDKzgGIJbBeksc16LGIfARDp8B7PdfaFmxVq7MFFD9Vn3omYdXcOxjYW2+JQ7swLh56kc4WEnjFcsXcLBCR0bqAbEMj6VVdVRwKJP9LXGwl9haIYbfkIljF4s+K20EdMCL3RfsjhGEMU9YzFBGgqN1b96bhcM/h9JKMXAsad30rP9bTcaRsXbpXDl+TnnK1PXoGjbZpnCrOIw+D22Vf4LsDWSNLV1ZDBgcK7OYOALWwpYVjYHj+D49uqzwCWNIIt/3A1b9AiYgq027/pArqsGRk/CV3IFLMcg3PWEIzrNg6E/SOftrz37qEDjxqwXpFEIo8yrDMRH3wF6S98HhRAWEcnS1wP71/tzzuOkg3NUZjtFH6HruRRlzARh33tlRtlMOYDmDi4cTbUQPLhZLX9yuT3EUkCsmtvf6bIFzDNUobJmz1l9GcPxOOJy8Uz73Hu9HzQxQNnFXDn2rI2agJ9rI2QMyGY9ia6HiyTkFfqIG0O2G9cW81DmRTTAfbH3rdJCG42CajE6nNBLW7yqwlTuZ+GOkY6aXb52InatyB9fE0ZvqGHaN28W+J/pCmWF9V+7hWz82ch/H5PnBT9T6Wf2x7uOYDf6h+tO4xfGH+omPDalq7u6pWxx39AOf4nquFsc9tTgapQbjiITK9mWfb/XzofzjW8ErB//cnlcco7eDqG+Mq/Jz6c1MXDFgsbgmjryY2Lod28j7kb1kitbQimRKtgKDZdI5VZyFm4xD1kDS8SaQm9lA/oms4JNTawRw68K02tmW0Q2S4l79kYmktEzm4s9aRFDaVN2jTyzQaIGGZuSzXMkfVxCwxHsDstKouViD9Q3GkYw9N9yt5eP6xwt16eWYr64L9md+lbnjiLG+WKzemFbXvsAeQha1p19rvrSbfiOzNTO8dbdUtP6g3nmaOun07Hnb6YBF2IVqcB4K+LKb/8zqNxchPW1cw4wvbfwc71wFU/5+BdgF4KGDd2wtgd1gHLiEjmX9gCfM6CHQsR1LWHCMR8VPpweV5RTnsedZjm4rsNZayssMdgDpSJcBvYhOsqBDWWKatx4w2pabHHpipTx2NlhjJ5fc54awkp1cH3j5PKaQ+OgcyQ4w76/pOAxTOdc44nocsT14hOv4hBaOCZDOIjY/TYCL/9CtSlG/xNExcOhe/m7phyh0JORkD1CZXZYBpSCdLxiO8hJTxHFSg8IR/F4cxeUcm+4OaxKPYxMHexezA5irxzAcZ0pUP+4THCy7Ue1T7UOxcSA21/q1OvT9osyJBo4E645rUW5PfjEOsj+B4akTAEl6xMQBdMeKJ7NEY/XsckdV+fUMB/atq9ywxIsxAEZ+scdXIvDE6rEGDifP+ah+ubW3VtD6XTg2DqF6QdcxqyaPJo4RT2MWbFTmLGilxmqf4xgY7kYMY47MjV55Gwdeir8dJg4Uyx32J15K/TYcI71UzwD/fpo45hzEyPQERRysORvKj+g8xeHoAXwJgkMpVcGxlDmxiuMEHq3tMW86jvqW1X0cWA7I5NrGsWPhyGTimBMVOA7nWLr6PMfBkMoX+5Pw61qVeQXHBMQ3FhgO68FyoCFMa9babjiO4mpMUi1ewRGBtASWPJlMHKwij2SaqaJC4HAWscDwHIdyXPSl04kPRvOhgqP0sWbN7esnl3BGxRrci5kFWi2yGo7D6ld2X8Hh7AtuR+QFn6Fm4GCvpHC/DQxvHokDXX36L+FIiKz3T2WMdaHzcAVH6UXqeupByoXh2btBPAI7u8xqOI4/zx3YcpqK9IxsHLpaWejKXOLgTiTDV3CwZBQ7dqU7iTF7tIojV7kjPnaPqKtuYfU/AUJq1+kNx/HndQcfUI+ETeBYOFipH4j13A6qJ0zhYPYAGhDPcbCr8bsPIF7L5eGItswrODJWJHEcYY27MVN6jmlsBjQdR33LykqhKg5WmC9wqgAnqXHwr5/JvidXVeYKBzMiofsCjkLOmr4Wqi/L1d1eFRwD6YBdbVnpZzqHFT+7vw+HD9Yyn8wyE53wEgd24y7L6kHj6BHjAyzKM0Pj8EkIo/wZjkBWQFgMKWlvyQoOZl/wbHgXBzY4zAWY/0Yc6LOmCzFfFggaBz592bercOTMQCw/voLF/acI1jiEi1bxBAdrKPAK6IQVUXm6jSpUbRxZaaRUcGSgOlYGvwBHYvZzJCppFY6BXh9A4RiB+SHysKyHDRwsV3nb82Mco9JremdODxypytzGMY9lH7uBI+pFeNFy8wR/fWGFPbUqEfugfJAUDlxMVz6vwvFhrW9hpLbxdk6J5z7EkbJb4L0egTUrx4GyqjZx5FMo13AwcKxZ8ZXpSWxn+tePd4jFSrpYYfj4zeyymblROPxlmfRHIvqwJnZrbAjyC8ArE0e+pa4e7xDVc6YGV/Jow+5AtJWvlu8vGiMidk+FD0+ExESOLBs4xgLHifPIxpU5LA3G0e98ecV1VD5H2iNukaRis4u+u18fO2bcguwSHXTO4baTWlVm2tmFccLe52Aax2vjS9v9rQedIcP2WdDxwbDRBY7JYU7pZpbxCK77gdrhaKBIdX9JWGPK+Hp9j9BFP3eCwyIMdzz2Gd13L0N559T1tkJfHsfB2gEf+/0FlFO8wkH+ff3RWLl8edVYuUxoUq5zdbKjm1ZuuZK3L/+oBFzyzVANhWt+omUlx8qvlbFy6Ikz7PmGHmMXXt2pY387b5GWjG2dnOEZQC64ZX5fkml07P77+nzJ/zfpoBL56q7kpkrSUW8zHnd1bpD7TZfZoQzLxR+9eFjAtw/yt2M4oacJlv1LcVyqImBsveBbiqGJHlg58NiB+BWRZwN1I74+h3qg1aizHo/Xs2918G3VqlWrVm+m/wH/WT975VX4vgAAAABJRU5ErkJggg==;" parent="uiQut5pqw0-m5vwZ60sW-4" vertex="1">
          <mxGeometry width="149.61519416210578" height="47.73999999999999" as="geometry" />
        </mxCell>
        <mxCell id="uiQut5pqw0-m5vwZ60sW-6" value="" style="shape=image;imageAspect=0;aspect=fixed;verticalLabelPosition=bottom;verticalAlign=top;image=data:image/svg+xml,PHN2ZyB4bWxucz0iaHR0cDovL3d3dy53My5vcmcvMjAwMC9zdmciIHhtbDpzcGFjZT0icHJlc2VydmUiIHZpZXdCb3g9IjAgMCA1MzguNiAxNTguNyIgeT0iMCIgeD0iMCIgaWQ9IkxheWVyXzEiIHZlcnNpb249IjEuMSI+PHBhdGggZmlsbD0iIzAwOTY4NiIgZD0iTTIwLjYgMzNjLS40IDAtLjYuMy0uNi43VjEyMmMwIDIuNiAyLjIgNC43IDQuOSA0LjdoMjAuOGMyLjMgMCA0LjEtMS44IDQuMS0zLjlWODguMWMwLS41LjYtLjcuOS0uM0w2NyAxMDkuM2M4LjMgMTEgMjAuMyAxNy4zIDMzIDE3LjNoLjNjLjQgMCAuNi0uMy42LS43djI1LjdjMCAzLjQtMi45IDYuMi02LjQgNi4ySDdjLTMuNSAwLTYuNC0yLjgtNi40LTYuMlYzOS4yQy43IDM1LjcgMy41IDMzIDcgMzNoMTMuNiIvPjxwYXRoIGZpbGw9IiMwMDhlYzMiIGQ9Ik0xMTQuMiAxSDI2LjFDMjIuNyAxIDIwIDMuNyAyMCA3djI2LjhjMC0uNC4zLS43LjYtLjdoMi41YzExLjMgMCAyMiA1LjYgMjkuNCAxNS40bDE3LjcgMjMuNGMuMy40LjkuMi45LS4zVjM3LjljMC0yLjcgMi4zLTQuOSA1LjItNC45SDk2YzIuNyAwIDQuOSAyLjEgNC45IDQuN1YxMjZjMCAuNC0uMy43LS42LjdoMTMuOWMzLjQgMCA2LjEtMi43IDYuMS02VjYuOWMwLTMuMy0yLjctNS45LTYuMS01Ljl6Ii8+PHBhdGggZmlsbD0iIzFkMzc2NyIgZD0iTTcxLjEgNzEuNWMwIC41LS42LjctLjkuM0w1Mi41IDQ4LjRDNDUuMSAzOC42IDM0LjQgMzMgMjMuMSAzM2gtMi41Yy0uNCAwLS42LjMtLjYuN1YxMjJjMCAyLjYgMi4yIDQuNyA0LjkgNC43aDIwLjhjMi4zIDAgNC4xLTEuOCA0LjEtMy45Vjg4LjFjMC0uNS42LS43LjktLjNMNjcgMTA5LjNjOC4zIDExIDIwLjMgMTcuMyAzMyAxNy4zaC4zYy40IDAgLjYtLjMuNi0uN1YzNy42QzEwMSAzNSA5OC44IDMzIDk2IDMzSDc2LjNjLTIuOSAwLTUuMiAyLjItNS4yIDQuOXYzMy42ek00MTkuMiAxMDVjLTEzLjEgMC0yMy4yLTEwLjgtMjMuMi0yNC43di0uMmMwLTEzLjggMTAtMjQuNiAyMy4yLTI0LjYgOC4yIDAgMTMuNyAzLjUgMTguNSA4LjFsMi45LTNjLTUuNy01LjItMTEuNS04LjgtMjEuMy04LjgtMTUuOSAwLTI3LjUgMTIuOS0yNy41IDI4LjR2LjJjMCAxNS44IDExLjYgMjguMiAyNy4zIDI4LjIgOS43IDAgMTYtMy44IDIxLjgtOS42bC0yLjctMi43Yy01LjYgNS43LTExLjEgOC43LTE5IDguN3ptNTAuNC0yNi43Yy0xMy0yLjctMTYtNi4yLTE2LTEydi0uMmMwLTUuNyA1LjMtMTAuNCAxMy40LTEwLjQgNiAwIDExLjIgMS43IDE2LjQgNi4ybDIuNi0zLjJjLTUuNi00LjUtMTAuOC02LjctMTguOC02LjctMTAuMiAwLTE3LjcgNi4zLTE3LjcgMTQuNHYuMmMwIDguMyA1LjMgMTIuOCAxOC41IDE1LjUgMTIuNSAyLjUgMTUuNSA1LjkgMTUuNSAxMS43di4yYzAgNi4zLTUuNiAxMC45LTEzLjkgMTAuOS04LjEgMC0xMy43LTIuNi0xOS43LTguMmwtMi43IDMuMWM2LjYgNS45IDEzLjMgOC44IDIyLjEgOC44IDEwLjYgMCAxOC4yLTYuMSAxOC4yLTE1di0uMmMuMS04LTUuMi0xMi41LTE3LjktMTUuMXptNjQuMi0yNS41djI1LjVoLTM1LjFWNTIuOGgtNC4xdjU1aDQuMVY4MmgzNS4xdjI1LjhoNC4xdi01NXpNMjIyLjcgNTFjLTE3IDAtMjkuNCAxMi44LTI5LjQgMjguNXYuMmMwIDE1LjcgMTIuMiAyOC40IDI5LjIgMjguNFMyNTIgOTUuMyAyNTIgNzkuNnYtLjJjMC0xNS43LTEyLjMtMjguNC0yOS4zLTI4LjR6bTE2LjYgMjguN2MwIDkuNS02LjggMTcuMi0xNi42IDE3LjItOS43IDAtMTYuNy03LjktMTYuNy0xNy4zdi0uMmMwLTkuNSA2LjgtMTcuMiAxNi41LTE3LjIgOS44IDAgMTYuNyA3LjkgMTYuNyAxNy4zdi4yem01OC0yNy41Yy0zLjcgMC02LjkgMi4zLTguMiA1LjdMMjc2LjggOTFsLTEyLjMtMzMuMWMtMS4zLTMuNC00LjUtNS43LTguMi01LjdIMjQ5bDIyLjMgNTUuNkgyODJsMjIuMy01NS42aC03em0tMTIxLjEgMy43djMwLjNsLTIyLjgtMjkuOWMtMS45LTIuNi01LTQuMS04LjItNC4xaC02LjF2NTUuMmgxMlY3Mi4zbDIzLjkgMzEuNGMxLjggMi4zIDQuNSAzLjcgNy41IDMuN2g1LjFWNTIuMmgtMTEuNXYzLjd6bTEzNi0zLjdsLTIzLjYgNTUuNmg3LjdjMi44IDAgNS40LTEuNyA2LjUtNC4zbDMuMy04aDIzLjNsMy4zIDhjMS4xIDIuNiAzLjYgNC4zIDYuNSA0LjNoOGwtMjMuNi01NS42aC0xMS40em0tMS45IDMyLjVsNy4zLTE3LjkgNy4zIDE3LjloLTE0LjZ6bTM5LjQgMTguM2wyIDQuOGgyVjgyLjloMzEuMXYtMy44aC0zMS4xVjU2LjZoMzQuNnYtMy44aC0zOC42em0tMjA4LjQgMjguMXYzLjZoNS4xdjEuM2gtNS4xdjQuMWgtMS41di0xMC4yaDcuMnYxLjNoLTUuN3ptMTMuNiA2LjRoLTUuNGwtMS4xIDIuNmgtMS41bDQuNi0xMC4yaDEuNGw0LjYgMTAuMkgxNTZsLTEuMS0yLjZ6bS0uNS0xLjJsLTIuMi01LTIuMiA1aDQuNHptNi4xIDMuMmMtLjgtLjUtMS41LTEuMS0xLjktMS45LS41LS44LS43LTEuNy0uNy0yLjcgMC0xIC4yLTEuOS43LTIuNy41LS44IDEuMS0xLjQgMS45LTEuOS44LS41IDEuOC0uNyAyLjgtLjcuOCAwIDEuNS4xIDIuMi40LjcuMyAxLjIuNyAxLjcgMS4ybC0xIC45Yy0uOC0uOC0xLjctMS4yLTIuOS0xLjItLjggMC0xLjQuMi0yLjEuNS0uNi4zLTEuMS44LTEuNCAxLjQtLjMuNi0uNSAxLjMtLjUgMnMuMiAxLjQuNSAyYy4zLjYuOCAxLjEgMS40IDEuNHMxLjMuNSAyLjEuNWMxLjEgMCAyLjEtLjQgMi45LTEuMmwxIC45Yy0uNS41LTEgLjktMS43IDEuMi0uNy4zLTEuNC40LTIuMi40LTEgLjItMS45LS4xLTIuOC0uNXptOS42LS41Yy0uOC0uOC0xLjEtMS45LTEuMS0zLjR2LTUuOGgxLjV2NS44YzAgMi4yIDEgMy4zIDIuOSAzLjMuOSAwIDEuNy0uMyAyLjEtLjguNS0uNS43LTEuNC43LTIuNXYtNS44aDEuNHY1LjhjMCAxLjUtLjQgMi42LTEuMSAzLjQtLjguOC0xLjggMS4yLTMuMiAxLjItMS40IDAtMi40LS40LTMuMi0xLjJ6bTEwLjMtOS4yaDEuNXY5aDUuNXYxLjNoLTd2LTEwLjN6bTguNSAwaDQuM2MxLjEgMCAyIC4yIDIuOS42LjguNCAxLjUgMSAyIDEuOHMuNyAxLjcuNyAyLjdjMCAxLS4yIDEuOS0uNyAyLjctLjUuOC0xLjEgMS40LTIgMS44LS44LjQtMS44LjYtMi45LjZoLTQuM3YtMTAuMnptNC4yIDljLjggMCAxLjYtLjIgMi4yLS41LjYtLjMgMS4xLS44IDEuNS0xLjQuMy0uNi41LTEuMi41LTJzLS4yLTEuNC0uNS0yYy0uMy0uNi0uOC0xLTEuNS0xLjQtLjYtLjMtMS40LS41LTIuMi0uNWgtMi44djcuN2gyLjh6bTE0LTEuM2gtNS40bC0xLjEgMi42SDE5OWw0LjYtMTAuMmgxLjRsNC42IDEwLjJoLTEuNWwtMS0yLjZ6bS0uNS0xLjJsLTIuMi01LTIuMiA1aDQuNHptNC41LTYuNWg0LjNjMS4xIDAgMiAuMiAyLjkuNi44LjQgMS41IDEgMiAxLjhzLjcgMS43LjcgMi43YzAgMS0uMiAxLjktLjcgMi43LS41LjgtMS4xIDEuNC0yIDEuOC0uOC40LTEuOC42LTIuOS42aC00LjN2LTEwLjJ6bTQuMiA5Yy44IDAgMS42LS4yIDIuMi0uNS42LS4zIDEuMS0uOCAxLjUtMS40LjMtLjYuNS0xLjIuNS0ycy0uMi0xLjQtLjUtMmMtLjMtLjYtLjgtMS0xLjUtMS40LS42LS4zLTEuNC0uNS0yLjItLjVoLTIuOHY3LjdoMi44em0xNSAwdjEuM2gtNy40di0xMC4yaDcuMnYxLjNoLTUuOHYzLjFoNS4xdjEuMmgtNS4xdjMuM2g2em01LjktOWg0LjNjMS4xIDAgMiAuMiAyLjkuNi44LjQgMS41IDEgMiAxLjhzLjcgMS43LjcgMi43YzAgMS0uMiAxLjktLjcgMi43LS41LjgtMS4xIDEuNC0yIDEuOHMtMS44LjYtMi45LjZoLTQuM3YtMTAuMnptNC4yIDljLjggMCAxLjYtLjIgMi4yLS41LjYtLjMgMS4xLS44IDEuNS0xLjQuMy0uNi41LTEuMi41LTJzLS4yLTEuNC0uNS0yYy0uMy0uNi0uOC0xLTEuNS0xLjQtLjYtLjMtMS40LS41LTIuMi0uNWgtMi44djcuN2gyLjh6bTE1LjEgMHYxLjNoLTcuNHYtMTAuMmg3LjJ2MS4zaC01Ljh2My4xaDUuMXYxLjJoLTUuMXYzLjNoNnptNy43LjdjLS44LS41LTEuNS0xLjEtMS45LTEuOS0uNS0uOC0uNy0xLjctLjctMi43IDAtMSAuMi0xLjkuNy0yLjcuNS0uOCAxLjEtMS40IDEuOS0xLjkuOC0uNSAxLjgtLjcgMi44LS43LjggMCAxLjUuMSAyLjIuNC43LjMgMS4yLjcgMS43IDEuMmwtMSAuOWMtLjgtLjgtMS43LTEuMi0yLjktMS4yLS44IDAtMS40LjItMi4xLjUtLjYuMy0xLjEuOC0xLjQgMS40LS4zLjYtLjUgMS4zLS41IDJzLjIgMS40LjUgMmMuMy42LjggMS4xIDEuNCAxLjQuNi4zIDEuMy41IDIuMS41IDEuMSAwIDIuMS0uNCAyLjktMS4ybDEgLjljLS41LjUtMSAuOS0xLjcgMS4yLS43LjMtMS40LjQtMi4yLjQtMS4xLjItMi0uMS0yLjgtLjV6bTguNS05LjdoMS41VjE0MGgtMS41di0xMC4yem0xMS43IDl2MS4zSDI3NnYtMTAuMmg3LjJ2MS4zaC01Ljh2My4xaDUuMXYxLjJoLTUuMXYzLjNoNnpNMjgxIDEyOWwtMS4zLTEuMS0xLjMgMS4xSDI3N2wxLjktMS45aDEuM2wxLjkgMS45SDI4MXptMTMuNC44VjE0MGgtMS4ybC02LjEtNy42djcuNmgtMS41di0xMC4yaDEuMmw2LjEgNy42di03LjZoMS41em00LjcgOS43Yy0uOC0uNS0xLjUtMS4xLTEuOS0xLjktLjUtLjgtLjctMS43LS43LTIuNyAwLTEgLjItMS45LjctMi43LjUtLjggMS4xLTEuNCAxLjktMS45LjgtLjUgMS44LS43IDIuOC0uNy44IDAgMS41LjEgMi4yLjQuNy4zIDEuMi43IDEuNyAxLjJsLS45LjljLS44LS44LTEuNy0xLjItMi45LTEuMi0uOCAwLTEuNC4yLTIuMS41LS42LjMtMS4xLjgtMS40IDEuNC0uMy42LS41IDEuMy0uNSAycy4yIDEuNC41IDJjLjMuNi44IDEuMSAxLjQgMS40LjYuMyAxLjMuNSAyLjEuNSAxLjEgMCAyLjEtLjQgMi45LTEuMmwuOS45Yy0uNS41LTEgLjktMS43IDEuMi0uNy4zLTEuNC40LTIuMi40LTEuMS4yLTItLjEtMi44LS41em04LjUtOS43aDEuNVYxNDBoLTEuNXYtMTAuMnptMTAuOCA3LjdIMzEzbC0xLjEgMi42aC0xLjVsNC42LTEwLjJoMS40bDQuNyAxMC4yaC0xLjVsLTEuMi0yLjZ6bS0uNS0xLjJsLTIuMi01LTIuMiA1aDQuNHptNS4yIDMuNWMtLjctLjItMS4zLS41LTEuNy0uOWwuNS0xLjFjLjQuNC45LjYgMS41LjlzMS4yLjMgMS45LjNjLjggMCAxLjUtLjEgMS45LS40LjQtLjMuNi0uNy42LTEuMSAwLS40LS4xLS42LS4zLS45LS4yLS4yLS41LS40LS44LS41LS4zLS4xLS44LS4yLTEuNC0uNC0uOC0uMi0xLjQtLjQtMS45LS42LS41LS4yLS45LS41LTEuMi0uOS0uMy0uNC0uNS0uOS0uNS0xLjYgMC0uNS4xLTEgLjQtMS41LjMtLjQuNy0uOCAxLjMtMS4xLjYtLjMgMS4zLS40IDIuMi0uNC42IDAgMS4yLjEgMS44LjIuNi4yIDEuMS40IDEuNS43bC0uNSAxLjJjLS40LS4zLS45LS41LTEuNC0uNi0uNS0uMS0xLS4yLTEuNC0uMi0uOCAwLTEuNS4yLTEuOS41LS40LjMtLjYuNy0uNiAxLjIgMCAuNC4xLjYuNC45LjIuMi41LjQuOS41LjMuMS44LjMgMS40LjQuOC4yIDEuNC40IDEuOS42LjUuMi45LjUgMS4yLjguMy40LjUuOS41IDEuNSAwIC41LS4xIDEtLjQgMS41LS4zLjQtLjcuOC0xLjMgMS4xLS42LjMtMS4zLjQtMi4yLjQtLjktLjEtMS42LS4zLTIuNC0uNXptMTIuNiAwYy0uNy0uMi0xLjMtLjUtMS43LS45bC41LTEuMWMuNC40LjkuNiAxLjUuOXMxLjIuMyAxLjkuM2MuOCAwIDEuNS0uMSAxLjktLjQuNC0uMy42LS43LjYtMS4xIDAtLjQtLjEtLjYtLjMtLjktLjItLjItLjUtLjQtLjgtLjUtLjMtLjEtLjgtLjItMS40LS40LS44LS4yLTEuNC0uNC0xLjktLjYtLjUtLjItLjktLjUtMS4yLS45LS4zLS40LS41LS45LS41LTEuNiAwLS41LjEtMSAuNC0xLjUuMy0uNC43LS44IDEuMy0xLjEuNi0uMyAxLjMtLjQgMi4yLS40LjYgMCAxLjIuMSAxLjguMi42LjIgMS4xLjQgMS41LjdsLS41IDEuMmMtLjQtLjMtLjktLjUtMS40LS42LS41LS4xLTEtLjItMS40LS4yLS44IDAtMS40LjItMS45LjUtLjQuMy0uNi43LS42IDEuMiAwIC40LjEuNi40LjkuMi4yLjUuNC45LjUuMy4xLjguMyAxLjQuNC44LjIgMS40LjQgMS45LjYuNS4yLjkuNSAxLjIuOC4zLjQuNS45LjUgMS41IDAgLjUtLjEgMS0uNCAxLjUtLjMuNC0uNy44LTEuMyAxLjEtLjYuMy0xLjMuNC0yLjIuNC0uOS0uMS0xLjctLjMtMi40LS41em0xMC0uM2MtLjgtLjUtMS41LTEuMS0yLTEuOS0uNS0uOC0uNy0xLjctLjctMi43cy4yLTEuOS43LTIuN2MuNS0uOCAxLjEtMS40IDItMS45LjgtLjUgMS44LS43IDIuOC0uNyAxIDAgMS45LjIgMi44LjcuOC41IDEuNSAxLjEgMS45IDEuOS41LjguNyAxLjcuNyAyLjcgMCAxLS4yIDEuOS0uNyAyLjctLjUuOC0xLjEgMS40LTEuOSAxLjktLjguNS0xLjguNy0yLjguNy0xLjEgMC0yLS4zLTIuOC0uN3ptNC44LTEuMmMuNi0uMyAxLjEtLjggMS40LTEuNC4zLS42LjUtMS4zLjUtMnMtLjItMS40LS41LTJjLS4zLS42LS44LTEuMS0xLjQtMS40LS42LS4zLTEuMy0uNS0yLS41LS44IDAtMS40LjItMiAuNS0uNi4zLTEuMS44LTEuNCAxLjQtLjMuNi0uNSAxLjMtLjUgMnMuMiAxLjQuNSAyYy4zLjYuOCAxLjEgMS40IDEuNC42LjMgMS4zLjUgMiAuNXMxLjQtLjEgMi0uNXptNy4yIDEuMmMtLjgtLjUtMS41LTEuMS0xLjktMS45LS41LS44LS43LTEuNy0uNy0yLjcgMC0xIC4yLTEuOS43LTIuNy41LS44IDEuMS0xLjQgMS45LTEuOS44LS41IDEuOC0uNyAyLjgtLjcuOCAwIDEuNS4xIDIuMi40LjcuMyAxLjIuNyAxLjcgMS4ybC0xIC45Yy0uOC0uOC0xLjctMS4yLTIuOS0xLjItLjggMC0xLjQuMi0yLjEuNS0uNi4zLTEuMS44LTEuNCAxLjQtLjMuNi0uNSAxLjMtLjUgMnMuMiAxLjQuNSAyYy4zLjYuOCAxLjEgMS40IDEuNC42LjMgMS4zLjUgMi4xLjUgMS4xIDAgMi4xLS40IDIuOS0xLjJsMSAuOWMtLjUuNS0xIC45LTEuNyAxLjItLjcuMy0xLjQuNC0yLjIuNC0xLjEuMi0yLS4xLTIuOC0uNXptOC41LTkuN2gxLjVWMTQwaC0xLjV2LTEwLjJ6bTEwLjkgNy43aC01LjRsLTEuMSAyLjZIMzY5bDQuNi0xMC4yaDEuNGw0LjYgMTAuMmgtMS41bC0xLTIuNnptLS41LTEuMmwtMi4yLTUtMi4yIDVoNC40em00LjQtNi41aDEuNVYxNDBIMzgxdi0xMC4yem01LjEgMTBjLS43LS4yLTEuMy0uNS0xLjctLjlsLjUtMS4xYy40LjQuOS42IDEuNS45czEuMi4zIDEuOS4zYy44IDAgMS41LS4xIDEuOS0uNC40LS4zLjYtLjcuNi0xLjEgMC0uNC0uMS0uNi0uMy0uOS0uMi0uMi0uNS0uNC0uOC0uNS0uMy0uMS0uOC0uMi0xLjQtLjQtLjgtLjItMS40LS40LTEuOS0uNi0uNS0uMi0uOS0uNS0xLjItLjktLjMtLjQtLjUtLjktLjUtMS42IDAtLjUuMS0xIC40LTEuNS4zLS40LjctLjggMS4zLTEuMS42LS4zIDEuMy0uNCAyLjItLjQuNiAwIDEuMi4xIDEuOC4yLjYuMiAxLjEuNCAxLjUuN2wtLjUgMS4yYy0uNC0uMy0uOS0uNS0xLjQtLjYtLjUtLjEtMS0uMi0xLjQtLjItLjggMC0xLjQuMi0xLjkuNS0uNC4zLS42LjctLjYgMS4yIDAgLjQuMS42LjQuOS4yLjIuNS40LjkuNS4zLjEuOC4zIDEuNC40LjguMiAxLjQuNCAxLjkuNi41LjIuOS41IDEuMi44LjMuNC41LjkuNSAxLjUgMCAuNS0uMSAxLS40IDEuNS0uMy40LS43LjgtMS4zIDEuMS0uNi4zLTEuMy40LTIuMi40LS45LS4xLTEuNy0uMy0yLjQtLjV6bTE5LjMtMXYxLjNIMzk4di0xMC4yaDcuMnYxLjNoLTUuOHYzLjFoNS4xdjEuMmgtNS4xdjMuM2g2em0xNC42LTlWMTQwaC0xLjV2LTQuNmgtNS45djQuNmgtMS41di0xMC4yaDEuNXY0LjRoNS45di00LjRoMS41em0zLjkgOS4yYy0uOC0uOC0xLjEtMS45LTEuMS0zLjR2LTUuOGgxLjV2NS44YzAgMi4yIDEgMy4zIDIuOSAzLjMuOSAwIDEuNy0uMyAyLjEtLjguNS0uNS43LTEuNC43LTIuNXYtNS44aDEuNHY1LjhjMCAxLjUtLjQgMi42LTEuMSAzLjQtLjguOC0xLjggMS4yLTMuMiAxLjItMS40IDAtMi40LS40LTMuMi0xLjJ6bTE5LjggMXYtNy41bC0zLjcgNi4yaC0uN2wtMy43LTYuMnY3LjRoLTEuNHYtMTAuMmgxLjJsNC4zIDcuMiA0LjItNy4yaDEuMnYxMC4yaC0xLjR6bTEwLjgtMi41SDQ0OWwtMS4xIDIuNmgtMS41bDQuNi0xMC4yaDEuNGw0LjYgMTAuMmgtMS41bC0xLTIuNnptLS41LTEuMmwtMi4yLTUtMi4yIDVoNC40em0xMy4yLTYuNVYxNDBINDY2bC02LjEtNy42djcuNmgtMS41di0xMC4yaDEuMmw2LjEgNy42di03LjZoMS41em05LjQgNy43aC01LjRMNDcwIDE0MGgtMS41bDQuNi0xMC4yaDEuNGw0LjcgMTAuMmgtMS41bC0xLjEtMi41em0tLjUtMS4ybC0yLjItNS0yLjIgNWg0LjR6bTUuMiAzLjVjLS43LS4yLTEuMy0uNS0xLjctLjlsLjUtMS4xYy40LjQuOS42IDEuNS45czEuMi4zIDEuOS4zYy44IDAgMS41LS4xIDEuOS0uNC40LS4zLjYtLjcuNi0xLjEgMC0uNC0uMS0uNi0uMy0uOS0uMi0uMi0uNS0uNC0uOC0uNS0uMy0uMS0uOC0uMi0xLjQtLjQtLjgtLjItMS40LS40LTEuOS0uNi0uNS0uMi0uOS0uNS0xLjItLjktLjMtLjQtLjUtLjktLjUtMS42IDAtLjUuMS0xIC40LTEuNS4zLS40LjctLjggMS4zLTEuMS42LS4zIDEuMy0uNCAyLjItLjQuNiAwIDEuMi4xIDEuOC4yLjYuMiAxLjEuNCAxLjUuN2wtLjUgMS4yYy0uNC0uMy0uOS0uNS0xLjQtLjYtLjUtLjEtMS0uMi0xLjQtLjItLjggMC0xLjUuMi0xLjkuNS0uNC4zLS42LjctLjYgMS4yIDAgLjQuMS42LjQuOS4yLjIuNS40LjkuNS4zLjEuOC4zIDEuNC40LjguMiAxLjQuNCAxLjkuNi41LjIuOS41IDEuMi44LjMuNC41LjkuNSAxLjUgMCAuNS0uMSAxLS40IDEuNS0uMy40LS43LjgtMS4zIDEuMS0uNi4zLTEuMy40LTIuMi40LS45LS4xLTEuNy0uMy0yLjQtLjV6bS0zNDAuOCAxNi43Yy0uOC0uOC0xLjMtMi0xLjMtMy41di01LjdoMi45djUuNmMwIDEuNi42IDIuNSAxLjkgMi41IDEuMyAwIDEuOS0uOCAxLjktMi41di01LjZoMi45djUuN2MwIDEuNS0uNCAyLjctMS4zIDMuNS0uOC44LTIgMS4yLTMuNSAxLjItMS41LjEtMi43LS4zLTMuNS0xLjJ6bTIwLTkuMnYxMC4yaC0yLjRsLTQuNS01LjV2NS41aC0yLjh2LTEwLjJoMi40bDQuNSA1LjV2LTUuNWgyLjh6bTIuMSAwaDIuOXYxMC4yaC0yLjl2LTEwLjJ6bTE1LjMgMGwtNC40IDEwLjJoLTIuOWwtNC40LTEwLjJoMy4xbDIuOCA2LjcgMi44LTYuN2gzem04LjggOHYyLjJoLTguMnYtMTAuMmg4djIuMmgtNS4ydjEuN2g0LjV2Mi4yaC00LjV2MS45aDUuNHptNi4xLS40aC0xLjZ2Mi43aC0yLjl2LTEwLjJoNC43Yy45IDAgMS43LjIgMi40LjVzMS4yLjcgMS42IDEuMy42IDEuMi42IDJjMCAuNy0uMiAxLjQtLjUgMS45LS4zLjYtLjggMS0xLjUgMS4zbDIuMiAzLjJoLTMuMWwtMS45LTIuN3ptMS40LTQuOWMtLjMtLjMtLjgtLjQtMS4zLS40aC0xLjZ2M2gxLjZjLjYgMCAxLS4xIDEuMy0uNC4zLS4zLjUtLjYuNS0xLjEtLjEtLjQtLjItLjgtLjUtMS4xem02LjEgNy41Yy0uOC0uMi0xLjQtLjUtMS45LS44bDEtMi4xYy41LjMgMSAuNSAxLjYuNy42LjIgMS4yLjMgMS44LjMgMS4xIDAgMS43LS4zIDEuNy0uOCAwLS4zLS4yLS41LS41LS43LS4zLS4xLS44LS4zLTEuNS0uNC0uOC0uMi0xLjQtLjMtMS45LS41cy0xLS41LTEuMy0uOWMtLjQtLjQtLjYtMS0uNi0xLjcgMC0uNi4yLTEuMi41LTEuN3MuOS0uOSAxLjUtMS4yYy43LS4zIDEuNS0uNCAyLjUtLjQuNyAwIDEuMy4xIDIgLjIuNy4yIDEuMi40IDEuNy43bC0uOSAyLjFjLTEtLjUtMS45LS44LTIuOC0uOC0uNiAwLTEgLjEtMS4zLjMtLjMuMi0uNC40LS40LjcgMCAuMy4yLjUuNS42LjMuMS44LjMgMS41LjQuOC4yIDEuNC4zIDEuOS41czEgLjUgMS4zLjljLjQuNC42IDEgLjYgMS43IDAgLjYtLjIgMS4yLS41IDEuN3MtLjkuOS0xLjUgMS4yYy0uNy4zLTEuNS40LTIuNS40LS45LS4xLTEuNy0uMi0yLjUtLjR6bTguMy0xMC4yaDIuOXYxMC4yaC0yLjl2LTEwLjJ6bTQuOSAwaDQuOGMxLjEgMCAyLjEuMiAzIC42LjkuNCAxLjUgMSAyIDEuOHMuNyAxLjcuNyAyLjdjMCAxLS4yIDEuOS0uNyAyLjctLjUuOC0xLjIgMS40LTIgMS44LS45LjQtMS45LjYtMyAuNmgtNC44di0xMC4yem00LjggOGMuOSAwIDEuNi0uMiAyLjEtLjcuNS0uNS44LTEuMi44LTIuMSAwLS45LS4zLTEuNi0uOC0yLjFzLTEuMi0uNy0yLjEtLjdoLTEuOHY1LjZoMS44em0xNCAuM0gyMjhsLS44IDJoLTNsNC41LTEwLjJoMi45bDQuNSAxMC4yaC0zbC0uOC0yem0tLjgtMi4xbC0xLjMtMy4zLTEuMyAzLjNoMi42em01LjUtNi4yaDQuOGMxLjEgMCAyLjEuMiAzIC42czEuNSAxIDIgMS44LjcgMS43LjcgMi43YzAgMS0uMiAxLjktLjcgMi43LS41LjgtMS4yIDEuNC0yIDEuOC0uOS40LTEuOS42LTMgLjZIMjM3di0xMC4yem00LjcgOGMuOSAwIDEuNi0uMiAyLjEtLjcuNS0uNS44LTEuMi44LTIuMSAwLS45LS4zLTEuNi0uOC0yLjFzLTEuMi0uNy0yLjEtLjdoLTEuOHY1LjZoMS44em0xNS42IDB2Mi4ySDI0OXYtMTAuMmg4djIuMmgtNS4ydjEuN2g0LjV2Mi4yaC00LjV2MS45aDUuNXptMTUuNi04djEwLjJoLTIuNEwyNjYgMTUydjUuNWgtMi44di0xMC4yaDIuNGw0LjUgNS41di01LjVoMi44em00LjIgOS44Yy0uOS0uNS0xLjUtMS4xLTItMS45LS41LS44LS43LTEuNy0uNy0yLjcgMC0xIC4yLTEuOS43LTIuNy41LS44IDEuMi0xLjQgMi0xLjkuOS0uNSAxLjgtLjcgMi45LS43czIuMS4yIDIuOS43Yy45LjUgMS41IDEuMSAyIDEuOS41LjguNyAxLjcuNyAyLjcgMCAxLS4yIDEuOS0uNyAyLjctLjUuOC0xLjIgMS40LTIgMS45LS45LjUtMS44LjctMi45LjdzLTItLjItMi45LS43em00LjQtMi4xYy40LS4yLjctLjYgMS0xIC4yLS40LjQtMSAuNC0xLjUgMC0uNi0uMS0xLjEtLjQtMS41LS4yLS40LS42LS44LTEtMS0uNC0uMi0uOS0uNC0xLjQtLjQtLjUgMC0xIC4xLTEuNC40LS40LjItLjguNi0xIDEtLjIuNC0uNCAxLS40IDEuNSAwIC42LjEgMS4xLjQgMS41LjIuNC42LjggMSAxIC40LjIuOS40IDEuNC40LjUgMCAuOS0uMSAxLjQtLjR6bTE1LjgtNy43bC00LjQgMTAuMkgyOTBsLTQuNC0xMC4yaDMuMWwyLjggNi43IDIuOC02LjdoM3ptNy4xIDguM2gtNC4zbC0uOCAyaC0zbDQuNS0xMC4yaDIuOWw0LjUgMTAuMmgtM2wtLjgtMnptLS44LTIuMWwtMS4zLTMuMy0xLjMgMy4zaDIuNnptOS43LTYuMmg0LjhjMS4xIDAgMi4xLjIgMyAuNi45LjQgMS41IDEgMiAxLjhzLjcgMS43LjcgMi43YzAgMS0uMiAxLjktLjcgMi43LS41LjgtMS4yIDEuNC0yIDEuOC0uOS40LTEuOS42LTMgLjZoLTQuOHYtMTAuMnptNC43IDhjLjkgMCAxLjYtLjIgMi4xLS43LjUtLjUuOC0xLjIuOC0yLjEgMC0uOS0uMy0xLjYtLjgtMi4xcy0xLjItLjctMi4xLS43aC0xLjh2NS42aDEuOHptMTUuNiAwdjIuMmgtOC4ydi0xMC4yaDh2Mi4yaC01LjJ2MS43aDQuNXYyLjJoLTQuNXYxLjloNS40em01LjktOGgyLjl2Ny45aDQuOXYyLjNoLTcuOHYtMTAuMnptOC45IDBoMi45djEwLjJoLTIuOXYtMTAuMnptNi4xIDEwLjJjLS44LS4yLTEuNC0uNS0xLjktLjhsLjktMi4xYy41LjMgMSAuNSAxLjYuNy42LjIgMS4yLjMgMS44LjMgMS4xIDAgMS43LS4zIDEuNy0uOCAwLS4zLS4yLS41LS41LS43LS4zLS4xLS44LS4zLTEuNS0uNC0uOC0uMi0xLjQtLjMtMS45LS41cy0xLS41LTEuMy0uOWMtLjQtLjQtLjYtMS0uNi0xLjcgMC0uNi4yLTEuMi41LTEuN3MuOS0uOSAxLjUtMS4yYy43LS4zIDEuNS0uNCAyLjUtLjQuNyAwIDEuMy4xIDIgLjIuNy4yIDEuMi40IDEuNy43bC0uOSAyLjFjLTEtLjUtMS45LS44LTIuOC0uOC0uNiAwLTEgLjEtMS4zLjMtLjMuMi0uNC40LS40LjcgMCAuMy4yLjUuNS42LjMuMS44LjMgMS41LjQuOC4yIDEuNC4zIDEuOS41czEgLjUgMS4zLjljLjQuNC42IDEgLjYgMS43IDAgLjYtLjIgMS4yLS41IDEuN3MtLjkuOS0xLjUgMS4yYy0uNy4zLTEuNS40LTIuNS40LS44LS4xLTEuNi0uMi0yLjQtLjR6bTE3LjUtNC4zYy4zLjQuNSAxIC41IDEuNiAwIC45LS40IDEuNi0xLjEgMi4xLS43LjUtMS44LjctMy4xLjdoLTUuNXYtMTAuMmg1LjJjMS4zIDAgMi4zLjIgMyAuNy43LjUgMSAxLjEgMSAyIDAgLjUtLjEuOS0uNCAxLjMtLjIuNC0uNi43LTEgLjkuNi4xIDEuMS41IDEuNC45em0tNi4zLTMuOHYyaDJjMSAwIDEuNS0uMyAxLjUtMXMtLjUtMS0xLjUtMWgtMnptMy45IDVjMC0uNy0uNS0xLTEuNS0xaC0yLjR2Mi4xaDIuNGMxIDAgMS41LS40IDEuNS0xLjF6bTYuNyAyLjdjLS45LS41LTEuNS0xLjEtMi0xLjktLjUtLjgtLjctMS43LS43LTIuNyAwLTEgLjItMS45LjctMi43LjUtLjggMS4yLTEuNCAyLTEuOS45LS41IDEuOC0uNyAyLjktLjcgMS4xIDAgMi4xLjIgMi45LjcuOS41IDEuNSAxLjEgMiAxLjkuNS44LjcgMS43LjcgMi43IDAgMS0uMiAxLjktLjcgMi43LS41LjgtMS4yIDEuNC0yIDEuOS0uOS41LTEuOC43LTIuOS43LTEuMSAwLTIuMS0uMi0yLjktLjd6bTQuMy0yLjFjLjQtLjIuOC0uNiAxLTEgLjItLjQuNC0xIC40LTEuNSAwLS42LS4xLTEuMS0uNC0xLjUtLjItLjQtLjYtLjgtMS0xLS40LS4yLS45LS40LTEuNC0uNC0uNSAwLTEgLjEtMS40LjQtLjQuMi0uNy42LTEgMS0uMi40LS40IDEtLjQgMS41IDAgLjYuMSAxLjEuNCAxLjUuMi40LjYuOCAxIDEgLjQuMi45LjQgMS40LjQuNSAwIDEtLjEgMS40LS40em0xMi41LjZoLTQuM2wtLjggMmgtM2w0LjUtMTAuMmgyLjlsNC41IDEwLjJoLTNsLS44LTJ6bS0uOC0yLjFsLTEuMy0zLjMtMS4zIDMuM2gyLjZ6Ii8+PC9zdmc+;" parent="uiQut5pqw0-m5vwZ60sW-4" vertex="1">
          <mxGeometry x="182.26530612244898" y="5.766872556684898" width="143.08313786812613" height="41.973127443315086" as="geometry" />
        </mxCell>
        <UserObject label="&lt;span style=&quot;forced-color-adjust: none; color: rgb(0, 0, 0); font-family: Helvetica; font-size: 14px; font-variant-ligatures: normal; font-variant-caps: normal; font-weight: 700; letter-spacing: normal; orphans: 2; text-align: left; text-indent: 0px; text-transform: none; widows: 2; word-spacing: 0px; -webkit-text-stroke-width: 0px; white-space: nowrap; background-color: initial; text-decoration-thickness: initial; text-decoration-style: initial; text-decoration-color: initial;&quot;&gt;http://purl.org/megalod/&lt;/span&gt;" link="&lt;i style=&quot;forced-color-adjust: none; color: rgb(0, 0, 0); font-family: Helvetica; font-size: 32px; font-variant-ligatures: normal; font-variant-caps: normal; font-weight: 700; letter-spacing: normal; orphans: 2; text-align: left; text-indent: 0px; text-transform: none; widows: 2; word-spacing: 0px; -webkit-text-stroke-width: 0px; white-space: nowrap; background-color: initial; text-decoration-thickness: initial; text-decoration-style: initial; text-decoration-color: initial;&quot;&gt;http://purl.org/ah/&lt;/i&gt;" id="2_FnKyVT---luQSSwjxy-0">
          <mxCell style="text;whiteSpace=wrap;html=1;fontSize=14;fontStyle=0" parent="WIyWlLk6GJQsqaUBKTNV-1" vertex="1">
            <mxGeometry x="1000" y="10" width="154.52" height="20" as="geometry" />
          </mxCell>
        </UserObject>
        <mxCell id="aN4TNNZIB-kkfR906gHl-0" value="M" style="text;html=1;align=center;verticalAlign=middle;whiteSpace=wrap;rounded=0;" parent="WIyWlLk6GJQsqaUBKTNV-1" vertex="1">
          <mxGeometry x="128.25" y="622" width="29" height="21" as="geometry" />
        </mxCell>
        <mxCell id="cJB38ODrC7gPobbQ5V5V-0" value="2025" style="text;html=1;align=right;verticalAlign=middle;whiteSpace=wrap;rounded=0;fontStyle=1;fontSize=14;" parent="WIyWlLk6GJQsqaUBKTNV-1" vertex="1">
          <mxGeometry x="1100" y="40" width="60" height="30" as="geometry" />
        </mxCell>
        <mxCell id="JUsungKbo8Yx-y-ZGuZq-1" value="Axe" style="rounded=1;whiteSpace=wrap;html=1;fontSize=12;glass=0;strokeWidth=1;shadow=0;fillColor=#ffe6cc;strokeColor=#d79b00;" parent="WIyWlLk6GJQsqaUBKTNV-1" vertex="1">
          <mxGeometry x="284.75" y="715" width="82" height="40" as="geometry" />
        </mxCell>
        <mxCell id="JUsungKbo8Yx-y-ZGuZq-2" value="&lt;h3 aria-level=&quot;2&quot; role=&quot;heading&quot; id=&quot;h3_ch_subclassof&quot; style=&quot;font-size: 11px;&quot;&gt;rdfs:subClassOf&lt;/h3&gt;" style="text;html=1;align=center;verticalAlign=middle;whiteSpace=wrap;rounded=0;fontSize=11;" parent="WIyWlLk6GJQsqaUBKTNV-1" vertex="1">
          <mxGeometry x="329.5" y="690" width="83" height="21" as="geometry" />
        </mxCell>
        <mxCell id="JUsungKbo8Yx-y-ZGuZq-3" value="" style="endArrow=none;rounded=0;endFill=0;startArrow=classic;startFill=1;entryX=0.5;entryY=0;entryDx=0;entryDy=0;exitX=0.583;exitY=0.982;exitDx=0;exitDy=0;exitPerimeter=0;" parent="WIyWlLk6GJQsqaUBKTNV-1" source="gLRjnHzjltlTBfM6pdDn-2" target="JUsungKbo8Yx-y-ZGuZq-1" edge="1">
          <mxGeometry width="50" height="50" relative="1" as="geometry">
            <mxPoint x="349.5" y="661" as="sourcePoint" />
            <mxPoint x="438.23699999999985" y="745.9599999999998" as="targetPoint" />
            <Array as="points" />
          </mxGeometry>
        </mxCell>
        <mxCell id="JUsungKbo8Yx-y-ZGuZq-5" value="LoomWeight" style="rounded=1;whiteSpace=wrap;html=1;fontSize=12;glass=0;strokeWidth=1;shadow=0;fillColor=#ffe6cc;strokeColor=#d79b00;" parent="WIyWlLk6GJQsqaUBKTNV-1" vertex="1">
          <mxGeometry x="415.25" y="715" width="100.75" height="40" as="geometry" />
        </mxCell>
        <mxCell id="JUsungKbo8Yx-y-ZGuZq-6" value="&lt;h3 aria-level=&quot;2&quot; role=&quot;heading&quot; id=&quot;h3_ch_subclassof&quot; style=&quot;font-size: 11px;&quot;&gt;rdfs:subClassOf&lt;/h3&gt;" style="text;html=1;align=center;verticalAlign=middle;whiteSpace=wrap;rounded=0;fontSize=11;" parent="WIyWlLk6GJQsqaUBKTNV-1" vertex="1">
          <mxGeometry x="471.25" y="690" width="83" height="21" as="geometry" />
        </mxCell>
        <mxCell id="JUsungKbo8Yx-y-ZGuZq-7" value="" style="endArrow=none;rounded=0;endFill=0;startArrow=classic;startFill=1;entryX=0.5;entryY=0;entryDx=0;entryDy=0;exitX=0.904;exitY=0.96;exitDx=0;exitDy=0;exitPerimeter=0;" parent="WIyWlLk6GJQsqaUBKTNV-1" source="gLRjnHzjltlTBfM6pdDn-2" target="JUsungKbo8Yx-y-ZGuZq-5" edge="1">
          <mxGeometry width="50" height="50" relative="1" as="geometry">
            <mxPoint x="501.25" y="661" as="sourcePoint" />
            <mxPoint x="589.9869999999999" y="745.9599999999998" as="targetPoint" />
            <Array as="points">
              <mxPoint x="388" y="680" />
              <mxPoint x="466" y="680" />
            </Array>
          </mxGeometry>
        </mxCell>
        <mxCell id="k6PhL5RgxGDSOkL6uPJ--0" value="Length" style="rounded=1;whiteSpace=wrap;html=1;fontSize=12;glass=0;strokeWidth=1;shadow=0;" parent="WIyWlLk6GJQsqaUBKTNV-1" vertex="1">
          <mxGeometry x="29" y="401" width="79" height="40" as="geometry" />
        </mxCell>
        <mxCell id="k6PhL5RgxGDSOkL6uPJ--1" value="Width" style="rounded=1;whiteSpace=wrap;html=1;fontSize=12;glass=0;strokeWidth=1;shadow=0;" parent="WIyWlLk6GJQsqaUBKTNV-1" vertex="1">
          <mxGeometry x="29" y="450" width="79" height="40" as="geometry" />
        </mxCell>
        <mxCell id="k6PhL5RgxGDSOkL6uPJ--2" value="Thickness" style="rounded=1;whiteSpace=wrap;html=1;fontSize=12;glass=0;strokeWidth=1;shadow=0;" parent="WIyWlLk6GJQsqaUBKTNV-1" vertex="1">
          <mxGeometry x="29" y="499" width="80" height="40" as="geometry" />
        </mxCell>
        <mxCell id="3BWwh5tl408He94CjxqT-0" value="Typometry" style="rounded=1;whiteSpace=wrap;html=1;fontSize=12;glass=0;strokeWidth=1;shadow=0;fillColor=#ffe6cc;strokeColor=#d79b00;" parent="WIyWlLk6GJQsqaUBKTNV-1" vertex="1">
          <mxGeometry x="132" y="450" width="79" height="40" as="geometry" />
        </mxCell>
        <mxCell id="3BWwh5tl408He94CjxqT-4" value="" style="endArrow=classic;html=1;rounded=0;exitX=0.145;exitY=-0.01;exitDx=0;exitDy=0;exitPerimeter=0;entryX=1;entryY=0.5;entryDx=0;entryDy=0;" parent="WIyWlLk6GJQsqaUBKTNV-1" source="gLRjnHzjltlTBfM6pdDn-2" target="3BWwh5tl408He94CjxqT-0" edge="1">
          <mxGeometry width="50" height="50" relative="1" as="geometry">
            <mxPoint x="350" y="650" as="sourcePoint" />
            <mxPoint x="400" y="600" as="targetPoint" />
            <Array as="points">
              <mxPoint x="240" y="470" />
            </Array>
          </mxGeometry>
        </mxCell>
        <mxCell id="3BWwh5tl408He94CjxqT-6" value="" style="endArrow=classic;html=1;rounded=0;exitX=0.5;exitY=0;exitDx=0;exitDy=0;entryX=1;entryY=0.5;entryDx=0;entryDy=0;" parent="WIyWlLk6GJQsqaUBKTNV-1" source="3BWwh5tl408He94CjxqT-0" target="k6PhL5RgxGDSOkL6uPJ--0" edge="1">
          <mxGeometry width="50" height="50" relative="1" as="geometry">
            <mxPoint x="290" y="510" as="sourcePoint" />
            <mxPoint x="340" y="460" as="targetPoint" />
            <Array as="points">
              <mxPoint x="170" y="420" />
            </Array>
          </mxGeometry>
        </mxCell>
        <mxCell id="3BWwh5tl408He94CjxqT-7" value="" style="endArrow=classic;html=1;rounded=0;exitX=0;exitY=0.5;exitDx=0;exitDy=0;" parent="WIyWlLk6GJQsqaUBKTNV-1" source="3BWwh5tl408He94CjxqT-0" target="k6PhL5RgxGDSOkL6uPJ--1" edge="1">
          <mxGeometry width="50" height="50" relative="1" as="geometry">
            <mxPoint x="290" y="510" as="sourcePoint" />
            <mxPoint x="340" y="460" as="targetPoint" />
          </mxGeometry>
        </mxCell>
        <mxCell id="3BWwh5tl408He94CjxqT-8" value="" style="endArrow=classic;html=1;rounded=0;exitX=0.25;exitY=1;exitDx=0;exitDy=0;entryX=1;entryY=0.5;entryDx=0;entryDy=0;" parent="WIyWlLk6GJQsqaUBKTNV-1" source="3BWwh5tl408He94CjxqT-0" target="k6PhL5RgxGDSOkL6uPJ--2" edge="1">
          <mxGeometry width="50" height="50" relative="1" as="geometry">
            <mxPoint x="290" y="510" as="sourcePoint" />
            <mxPoint x="340" y="460" as="targetPoint" />
            <Array as="points">
              <mxPoint x="150" y="500" />
              <mxPoint x="120" y="500" />
              <mxPoint x="120" y="520" />
            </Array>
          </mxGeometry>
        </mxCell>
        <mxCell id="3BWwh5tl408He94CjxqT-9" value="" style="endArrow=classic;html=1;rounded=0;entryX=1;entryY=0.25;entryDx=0;entryDy=0;" parent="WIyWlLk6GJQsqaUBKTNV-1" target="gLRjnHzjltlTBfM6pdDn-2" edge="1">
          <mxGeometry width="50" height="50" relative="1" as="geometry">
            <mxPoint x="730" y="360" as="sourcePoint" />
            <mxPoint x="550" y="380" as="targetPoint" />
            <Array as="points">
              <mxPoint x="730" y="520" />
              <mxPoint x="730" y="600" />
              <mxPoint x="480" y="600" />
              <mxPoint x="440" y="600" />
              <mxPoint x="430" y="600" />
            </Array>
          </mxGeometry>
        </mxCell>
        <mxCell id="3BWwh5tl408He94CjxqT-10" value="&lt;div&gt;&lt;span style=&quot;background-color: initial;&quot;&gt;Square&lt;/span&gt;&lt;br&gt;&lt;/div&gt;" style="rounded=1;whiteSpace=wrap;html=1;fontSize=12;glass=0;strokeWidth=1;shadow=0;fillColor=#ffe6cc;strokeColor=#d79b00;" parent="WIyWlLk6GJQsqaUBKTNV-1" vertex="1">
          <mxGeometry x="508" y="349" width="130" height="40" as="geometry" />
        </mxCell>
        <mxCell id="3BWwh5tl408He94CjxqT-11" value="" style="endArrow=classic;html=1;rounded=0;entryX=0.7;entryY=0;entryDx=0;entryDy=0;entryPerimeter=0;exitX=1;exitY=0.75;exitDx=0;exitDy=0;" parent="WIyWlLk6GJQsqaUBKTNV-1" source="Wt6RqohvD_NQ85V1_xqK-16" target="3BWwh5tl408He94CjxqT-10" edge="1">
          <mxGeometry width="50" height="50" relative="1" as="geometry">
            <mxPoint x="510" y="150" as="sourcePoint" />
            <mxPoint x="550" y="380" as="targetPoint" />
            <Array as="points">
              <mxPoint x="600" y="140" />
            </Array>
          </mxGeometry>
        </mxCell>
        <mxCell id="3BWwh5tl408He94CjxqT-12" value="" style="endArrow=classic;html=1;rounded=0;exitX=0.5;exitY=0;exitDx=0;exitDy=0;entryX=0;entryY=0.5;entryDx=0;entryDy=0;" parent="WIyWlLk6GJQsqaUBKTNV-1" source="gLRjnHzjltlTBfM6pdDn-2" target="3BWwh5tl408He94CjxqT-10" edge="1">
          <mxGeometry width="50" height="50" relative="1" as="geometry">
            <mxPoint x="330" y="440" as="sourcePoint" />
            <mxPoint x="380" y="390" as="targetPoint" />
            <Array as="points">
              <mxPoint x="309" y="440" />
              <mxPoint x="480" y="440" />
              <mxPoint x="480" y="370" />
            </Array>
          </mxGeometry>
        </mxCell>
        <mxCell id="3BWwh5tl408He94CjxqT-13" value="" style="endArrow=classic;html=1;rounded=0;exitX=0.568;exitY=0.041;exitDx=0;exitDy=0;exitPerimeter=0;entryX=0;entryY=0.5;entryDx=0;entryDy=0;" parent="WIyWlLk6GJQsqaUBKTNV-1" source="gLRjnHzjltlTBfM6pdDn-2" edge="1">
          <mxGeometry width="50" height="50" relative="1" as="geometry">
            <mxPoint x="330" y="440" as="sourcePoint" />
            <mxPoint x="340" y="519" as="targetPoint" />
            <Array as="points">
              <mxPoint x="320" y="520" />
            </Array>
          </mxGeometry>
        </mxCell>
        <mxCell id="3BWwh5tl408He94CjxqT-14" value="NS" style="rounded=1;whiteSpace=wrap;html=1;fontSize=12;glass=0;strokeWidth=1;shadow=0;" parent="WIyWlLk6GJQsqaUBKTNV-1" vertex="1">
          <mxGeometry x="521" y="414" width="39" height="30" as="geometry" />
        </mxCell>
        <mxCell id="3BWwh5tl408He94CjxqT-15" value="ID" style="rounded=1;whiteSpace=wrap;html=1;fontSize=12;glass=0;strokeWidth=1;shadow=0;" parent="WIyWlLk6GJQsqaUBKTNV-1" vertex="1">
          <mxGeometry x="660" y="411.97" width="39" height="30" as="geometry" />
        </mxCell>
        <mxCell id="3BWwh5tl408He94CjxqT-16" value="EW" style="rounded=1;whiteSpace=wrap;html=1;fontSize=12;glass=0;strokeWidth=1;shadow=0;" parent="WIyWlLk6GJQsqaUBKTNV-1" vertex="1">
          <mxGeometry x="586" y="412.97" width="39" height="30" as="geometry" />
        </mxCell>
        <mxCell id="3BWwh5tl408He94CjxqT-18" value="" style="endArrow=classic;html=1;rounded=0;exitX=0.25;exitY=1;exitDx=0;exitDy=0;entryX=0.5;entryY=0;entryDx=0;entryDy=0;" parent="WIyWlLk6GJQsqaUBKTNV-1" source="3BWwh5tl408He94CjxqT-10" target="3BWwh5tl408He94CjxqT-14" edge="1">
          <mxGeometry width="50" height="50" relative="1" as="geometry">
            <mxPoint x="330" y="440" as="sourcePoint" />
            <mxPoint x="380" y="390" as="targetPoint" />
          </mxGeometry>
        </mxCell>
        <mxCell id="3BWwh5tl408He94CjxqT-19" value="" style="endArrow=classic;html=1;rounded=0;exitX=0.75;exitY=1;exitDx=0;exitDy=0;entryX=0.5;entryY=0;entryDx=0;entryDy=0;" parent="WIyWlLk6GJQsqaUBKTNV-1" source="3BWwh5tl408He94CjxqT-10" target="3BWwh5tl408He94CjxqT-16" edge="1">
          <mxGeometry width="50" height="50" relative="1" as="geometry">
            <mxPoint x="604.33" y="414" as="sourcePoint" />
            <mxPoint x="604.33" y="440" as="targetPoint" />
          </mxGeometry>
        </mxCell>
        <mxCell id="3BWwh5tl408He94CjxqT-20" value="" style="endArrow=classic;html=1;rounded=0;exitX=1;exitY=0.5;exitDx=0;exitDy=0;entryX=0.5;entryY=0;entryDx=0;entryDy=0;" parent="WIyWlLk6GJQsqaUBKTNV-1" source="3BWwh5tl408He94CjxqT-10" target="3BWwh5tl408He94CjxqT-15" edge="1">
          <mxGeometry width="50" height="50" relative="1" as="geometry">
            <mxPoint x="560" y="470" as="sourcePoint" />
            <mxPoint x="610" y="420" as="targetPoint" />
            <Array as="points">
              <mxPoint x="680" y="369" />
            </Array>
          </mxGeometry>
        </mxCell>
        <mxCell id="3BWwh5tl408He94CjxqT-21" value="M" style="text;html=1;align=center;verticalAlign=middle;whiteSpace=wrap;rounded=0;" parent="WIyWlLk6GJQsqaUBKTNV-1" vertex="1">
          <mxGeometry x="595" y="324" width="29" height="21" as="geometry" />
        </mxCell>
        <mxCell id="3BWwh5tl408He94CjxqT-25" value="M" style="text;html=1;align=center;verticalAlign=middle;whiteSpace=wrap;rounded=0;" parent="WIyWlLk6GJQsqaUBKTNV-1" vertex="1">
          <mxGeometry x="434.5" y="580.5" width="29" height="21" as="geometry" />
        </mxCell>
        <mxCell id="3BWwh5tl408He94CjxqT-26" value="Coordinates" style="rounded=1;whiteSpace=wrap;html=1;fontSize=12;glass=0;strokeWidth=1;shadow=0;fillColor=#ffe6cc;strokeColor=#d79b00;" parent="WIyWlLk6GJQsqaUBKTNV-1" vertex="1">
          <mxGeometry x="341.13" y="499" width="100.75" height="40" as="geometry" />
        </mxCell>
        <mxCell id="3BWwh5tl408He94CjxqT-27" value="y" style="rounded=1;whiteSpace=wrap;html=1;fontSize=12;glass=0;strokeWidth=1;shadow=0;" parent="WIyWlLk6GJQsqaUBKTNV-1" vertex="1">
          <mxGeometry x="475" y="483" width="33" height="30" as="geometry" />
        </mxCell>
        <mxCell id="3BWwh5tl408He94CjxqT-28" value="Depth" style="rounded=1;whiteSpace=wrap;html=1;fontSize=12;glass=0;strokeWidth=1;shadow=0;" parent="WIyWlLk6GJQsqaUBKTNV-1" vertex="1">
          <mxGeometry x="366" y="455" width="51" height="30" as="geometry" />
        </mxCell>
        <mxCell id="3BWwh5tl408He94CjxqT-32" value="x" style="rounded=1;whiteSpace=wrap;html=1;fontSize=12;glass=0;strokeWidth=1;shadow=0;" parent="WIyWlLk6GJQsqaUBKTNV-1" vertex="1">
          <mxGeometry x="475" y="525" width="33" height="30" as="geometry" />
        </mxCell>
        <mxCell id="3BWwh5tl408He94CjxqT-33" value="" style="endArrow=classic;html=1;rounded=0;exitX=0.5;exitY=0;exitDx=0;exitDy=0;entryX=0.5;entryY=1;entryDx=0;entryDy=0;" parent="WIyWlLk6GJQsqaUBKTNV-1" source="3BWwh5tl408He94CjxqT-26" target="3BWwh5tl408He94CjxqT-28" edge="1">
          <mxGeometry width="50" height="50" relative="1" as="geometry">
            <mxPoint x="560" y="520" as="sourcePoint" />
            <mxPoint x="610" y="470" as="targetPoint" />
          </mxGeometry>
        </mxCell>
        <mxCell id="3BWwh5tl408He94CjxqT-34" value="" style="endArrow=classic;html=1;rounded=0;exitX=1;exitY=0.25;exitDx=0;exitDy=0;entryX=0;entryY=0.5;entryDx=0;entryDy=0;" parent="WIyWlLk6GJQsqaUBKTNV-1" source="3BWwh5tl408He94CjxqT-26" target="3BWwh5tl408He94CjxqT-27" edge="1">
          <mxGeometry width="50" height="50" relative="1" as="geometry">
            <mxPoint x="560" y="520" as="sourcePoint" />
            <mxPoint x="610" y="470" as="targetPoint" />
          </mxGeometry>
        </mxCell>
        <mxCell id="3BWwh5tl408He94CjxqT-35" value="" style="endArrow=classic;html=1;rounded=0;exitX=1;exitY=0.75;exitDx=0;exitDy=0;entryX=0;entryY=0.5;entryDx=0;entryDy=0;" parent="WIyWlLk6GJQsqaUBKTNV-1" source="3BWwh5tl408He94CjxqT-26" target="3BWwh5tl408He94CjxqT-32" edge="1">
          <mxGeometry width="50" height="50" relative="1" as="geometry">
            <mxPoint x="560" y="520" as="sourcePoint" />
            <mxPoint x="610" y="470" as="targetPoint" />
          </mxGeometry>
        </mxCell>
        <mxCell id="wprMWSHsCxBj1YnE9irY-0" value="&lt;span style=&quot;color: rgb(0, 0, 0); font-family: Helvetica; font-size: 12px; font-style: normal; font-variant-ligatures: normal; font-variant-caps: normal; font-weight: 400; letter-spacing: normal; orphans: 2; text-align: left; text-indent: 0px; text-transform: none; widows: 2; word-spacing: 0px; -webkit-text-stroke-width: 0px; white-space: normal; background-color: rgb(251, 251, 251); text-decoration-thickness: initial; text-decoration-style: initial; text-decoration-color: initial; display: inline !important; float: none;&quot;&gt;[1] A good practice is to use the Getty Vocab (AAT) if possible&lt;/span&gt;" style="text;whiteSpace=wrap;html=1;" vertex="1" parent="WIyWlLk6GJQsqaUBKTNV-1">
          <mxGeometry x="13" y="790" width="341" height="23" as="geometry" />
        </mxCell>
      </root>
    </mxGraphModel>
  </diagram>
</mxfile>
